<svg width="13" height="13" viewBox="0 0 13 13" fill="none" xmlns="http://www.w3.org/2000/svg">
<path d="M7 1H8V6H7V1Z" fill="black"/>
<path d="M11 1H12V6H11V1Z" fill="black"/>
<path d="M9 3H10V4H9V3Z" fill="black"/>
<path d="M8 2H9V3H8V2Z" fill="black"/>
<path d="M10 4H11V5H10V4Z" fill="black"/>
<path d="M7 7H8V11H7V7Z" fill="black"/>
<path d="M8 11H9V12H8V11Z" fill="black"/>
<path d="M9 10H10V11H9V10Z" fill="black"/>
<path d="M10 11H11V12H10V11Z" fill="black"/>
<path d="M11 7H12V11H11V7Z" fill="black"/>
<path d="M1 1H2V6H1V1Z" fill="black"/>
<path d="M2 1H5V2H2V1Z" fill="black"/>
<path d="M2 3H5V4H2V3Z" fill="black"/>
<path d="M5 2H6V3H5V2Z" fill="black"/>
<path d="M2 5H5V6H2V5Z" fill="black"/>
<path d="M5 4H6V5H5V4Z" fill="black"/>
<path d="M1 7H5V8H1V7Z" fill="black"/>
<path d="M5 8H6V12H5V8Z" fill="black"/>
<path d="M4 8H5V9H4V8Z" fill="black"/>
<path d="M1 11H2V12H1V11Z" fill="black"/>
<path d="M2 10H3V11H2V10Z" fill="black"/>
<path d="M3 9H4V10H3V9Z" fill="black"/>
<path d="M5 8H6V7H5V8Z" fill="black"/>
</svg>
