<svg width="48" height="48" viewBox="0 0 48 48" fill="none" xmlns="http://www.w3.org/2000/svg">
<path d="M25.8462 3.69231H29.5385V22.1538H25.8462V3.69231Z" fill="black"/>
<path d="M40.6154 3.69231H44.3077V22.1538H40.6154V3.69231Z" fill="black"/>
<path d="M33.2308 11.0769H36.9231V14.7692H33.2308V11.0769Z" fill="black"/>
<path d="M29.5385 7.38461H33.2308V11.0769H29.5385V7.38461Z" fill="black"/>
<path d="M36.9231 14.7692H40.6154V18.4615H36.9231V14.7692Z" fill="black"/>
<path d="M25.8462 25.8461H29.5385V40.6154H25.8462V25.8461Z" fill="black"/>
<path d="M29.5385 40.6154H33.2308V44.3077H29.5385V40.6154Z" fill="black"/>
<path d="M33.2308 36.9231H36.9231V40.6154H33.2308V36.9231Z" fill="black"/>
<path d="M36.9231 40.6154H40.6154V44.3077H36.9231V40.6154Z" fill="black"/>
<path d="M40.6154 25.8461H44.3077V40.6154H40.6154V25.8461Z" fill="black"/>
<path d="M3.69232 3.69231H7.38463V22.1538H3.69232V3.69231Z" fill="black"/>
<path d="M7.38464 3.69231H18.4616V7.38461H7.38464V3.69231Z" fill="black"/>
<path d="M7.38464 11.0769H18.4616V14.7692H7.38464V11.0769Z" fill="black"/>
<path d="M18.4615 7.38461H22.1539V11.0769H18.4615V7.38461Z" fill="black"/>
<path d="M7.38464 18.4615H18.4616V22.1538H7.38464V18.4615Z" fill="black"/>
<path d="M18.4615 14.7692H22.1539V18.4615H18.4615V14.7692Z" fill="black"/>
<path d="M3.69232 25.8461H18.4616V29.5385H3.69232V25.8461Z" fill="black"/>
<path d="M18.4615 29.5385H22.1539V44.3077H18.4615V29.5385Z" fill="black"/>
<path d="M14.7693 29.5385H18.4616V33.2308H14.7693V29.5385Z" fill="black"/>
<path d="M3.69232 40.6154H7.38463V44.3077H3.69232V40.6154Z" fill="black"/>
<path d="M7.38464 36.9231H11.077V40.6154H7.38464V36.9231Z" fill="black"/>
<path d="M11.0769 33.2308H14.7692V36.9231H11.0769V33.2308Z" fill="black"/>
<path d="M18.4615 29.5385H22.1539V25.8461H18.4615V29.5385Z" fill="black"/>
</svg>
