<svg width="1440" height="500" viewBox="0 0 1440 500" fill="none" xmlns="http://www.w3.org/2000/svg">
<g clip-path="url(#clip0_219_2)">
<rect width="1440" height="500" fill="white"/>
<g opacity="0.01">
<path d="M53.8462 7.69226H61.5385V46.1538H53.8462V7.69226Z" fill="black"/>
<path d="M84.6152 7.69226H92.3075V46.1538H84.6152V7.69226Z" fill="black"/>
<path d="M69.231 23.0769H76.9233V30.7692H69.231V23.0769Z" fill="black"/>
<path d="M61.5386 15.3846H69.2309V23.077H61.5386V15.3846Z" fill="black"/>
<path d="M76.9229 30.7693H84.6152V38.4616H76.9229V30.7693Z" fill="black"/>
<path d="M53.8462 53.8462H61.5385V84.6154H53.8462V53.8462Z" fill="black"/>
<path d="M61.5386 84.6154H69.2309V92.3077H61.5386V84.6154Z" fill="black"/>
<path d="M69.231 76.9231H76.9233V84.6154H69.231V76.9231Z" fill="black"/>
<path d="M76.9229 84.6154H84.6152V92.3077H76.9229V84.6154Z" fill="black"/>
<path d="M84.6152 53.8462H92.3075V84.6154H84.6152V53.8462Z" fill="black"/>
<path d="M7.69238 7.69226H15.3847V46.1538H7.69238V7.69226Z" fill="black"/>
<path d="M15.3848 7.69226H38.4617V15.3846H15.3848V7.69226Z" fill="black"/>
<path d="M15.3848 23.0769H38.4617V30.7692H15.3848V23.0769Z" fill="black"/>
<path d="M38.4614 15.3846H46.1537V23.077H38.4614V15.3846Z" fill="black"/>
<path d="M15.3848 38.4615H38.4617V46.1539H15.3848V38.4615Z" fill="black"/>
<path d="M38.4614 30.7693H46.1537V38.4616H38.4614V30.7693Z" fill="black"/>
<path d="M7.69238 53.8462H38.4616V61.5385H7.69238V53.8462Z" fill="black"/>
<path d="M38.4614 61.5385H46.1537V92.3077H38.4614V61.5385Z" fill="black"/>
<path d="M30.769 61.5385H38.4614V69.2308H30.769V61.5385Z" fill="black"/>
<path d="M7.69238 84.6154H15.3847V92.3077H7.69238V84.6154Z" fill="black"/>
<path d="M15.3848 76.9231H23.0771V84.6154H15.3848V76.9231Z" fill="black"/>
<path d="M23.0771 69.2307H30.7695V76.923H23.0771V69.2307Z" fill="black"/>
<path d="M38.4614 61.5385H46.1537V53.8462H38.4614V61.5385Z" fill="black"/>
<path d="M187.846 7.69226H195.538V46.1538H187.846V7.69226Z" fill="black"/>
<path d="M218.615 7.69226H226.308V46.1538H218.615V7.69226Z" fill="black"/>
<path d="M203.231 23.0769H210.923V30.7692H203.231V23.0769Z" fill="black"/>
<path d="M195.539 15.3846H203.231V23.077H195.539V15.3846Z" fill="black"/>
<path d="M210.923 30.7693H218.615V38.4616H210.923V30.7693Z" fill="black"/>
<path d="M187.846 53.8462H195.538V84.6154H187.846V53.8462Z" fill="black"/>
<path d="M195.539 84.6154H203.231V92.3077H195.539V84.6154Z" fill="black"/>
<path d="M203.231 76.9231H210.923V84.6154H203.231V76.9231Z" fill="black"/>
<path d="M210.923 84.6154H218.615V92.3077H210.923V84.6154Z" fill="black"/>
<path d="M218.615 53.8462H226.308V84.6154H218.615V53.8462Z" fill="black"/>
<path d="M141.692 7.69226H149.385V46.1538H141.692V7.69226Z" fill="black"/>
<path d="M149.385 7.69226H172.462V15.3846H149.385V7.69226Z" fill="black"/>
<path d="M149.385 23.0769H172.462V30.7692H149.385V23.0769Z" fill="black"/>
<path d="M172.461 15.3846H180.154V23.077H172.461V15.3846Z" fill="black"/>
<path d="M149.385 38.4615H172.462V46.1539H149.385V38.4615Z" fill="black"/>
<path d="M172.461 30.7693H180.154V38.4616H172.461V30.7693Z" fill="black"/>
<path d="M141.692 53.8462H172.462V61.5385H141.692V53.8462Z" fill="black"/>
<path d="M172.461 61.5385H180.154V92.3077H172.461V61.5385Z" fill="black"/>
<path d="M164.769 61.5385H172.461V69.2308H164.769V61.5385Z" fill="black"/>
<path d="M141.692 84.6154H149.385V92.3077H141.692V84.6154Z" fill="black"/>
<path d="M149.385 76.9231H157.077V84.6154H149.385V76.9231Z" fill="black"/>
<path d="M157.077 69.2307H164.769V76.923H157.077V69.2307Z" fill="black"/>
<path d="M172.461 61.5385H180.154V53.8462H172.461V61.5385Z" fill="black"/>
<path d="M321.846 7.69226H329.538V46.1538H321.846V7.69226Z" fill="black"/>
<path d="M352.615 7.69226H360.308V46.1538H352.615V7.69226Z" fill="black"/>
<path d="M337.231 23.0769H344.923V30.7692H337.231V23.0769Z" fill="black"/>
<path d="M329.539 15.3846H337.231V23.077H329.539V15.3846Z" fill="black"/>
<path d="M344.923 30.7693H352.615V38.4616H344.923V30.7693Z" fill="black"/>
<path d="M321.846 53.8462H329.538V84.6154H321.846V53.8462Z" fill="black"/>
<path d="M329.539 84.6154H337.231V92.3077H329.539V84.6154Z" fill="black"/>
<path d="M337.231 76.9231H344.923V84.6154H337.231V76.9231Z" fill="black"/>
<path d="M344.923 84.6154H352.615V92.3077H344.923V84.6154Z" fill="black"/>
<path d="M352.615 53.8462H360.308V84.6154H352.615V53.8462Z" fill="black"/>
<path d="M275.692 7.69226H283.385V46.1538H275.692V7.69226Z" fill="black"/>
<path d="M283.385 7.69226H306.462V15.3846H283.385V7.69226Z" fill="black"/>
<path d="M283.385 23.0769H306.462V30.7692H283.385V23.0769Z" fill="black"/>
<path d="M306.461 15.3846H314.154V23.077H306.461V15.3846Z" fill="black"/>
<path d="M283.385 38.4615H306.462V46.1539H283.385V38.4615Z" fill="black"/>
<path d="M306.461 30.7693H314.154V38.4616H306.461V30.7693Z" fill="black"/>
<path d="M275.692 53.8462H306.462V61.5385H275.692V53.8462Z" fill="black"/>
<path d="M306.461 61.5385H314.154V92.3077H306.461V61.5385Z" fill="black"/>
<path d="M298.769 61.5385H306.461V69.2308H298.769V61.5385Z" fill="black"/>
<path d="M275.692 84.6154H283.385V92.3077H275.692V84.6154Z" fill="black"/>
<path d="M283.385 76.9231H291.077V84.6154H283.385V76.9231Z" fill="black"/>
<path d="M291.077 69.2307H298.769V76.923H291.077V69.2307Z" fill="black"/>
<path d="M306.461 61.5385H314.154V53.8462H306.461V61.5385Z" fill="black"/>
<path d="M455.846 7.69226H463.538V46.1538H455.846V7.69226Z" fill="black"/>
<path d="M486.615 7.69226H494.308V46.1538H486.615V7.69226Z" fill="black"/>
<path d="M471.231 23.0769H478.923V30.7692H471.231V23.0769Z" fill="black"/>
<path d="M463.539 15.3846H471.231V23.077H463.539V15.3846Z" fill="black"/>
<path d="M478.923 30.7693H486.615V38.4616H478.923V30.7693Z" fill="black"/>
<path d="M455.846 53.8462H463.538V84.6154H455.846V53.8462Z" fill="black"/>
<path d="M463.539 84.6154H471.231V92.3077H463.539V84.6154Z" fill="black"/>
<path d="M471.231 76.9231H478.923V84.6154H471.231V76.9231Z" fill="black"/>
<path d="M478.923 84.6154H486.615V92.3077H478.923V84.6154Z" fill="black"/>
<path d="M486.615 53.8462H494.308V84.6154H486.615V53.8462Z" fill="black"/>
<path d="M409.692 7.69226H417.385V46.1538H409.692V7.69226Z" fill="black"/>
<path d="M417.385 7.69226H440.462V15.3846H417.385V7.69226Z" fill="black"/>
<path d="M417.385 23.0769H440.462V30.7692H417.385V23.0769Z" fill="black"/>
<path d="M440.461 15.3846H448.154V23.077H440.461V15.3846Z" fill="black"/>
<path d="M417.385 38.4615H440.462V46.1539H417.385V38.4615Z" fill="black"/>
<path d="M440.461 30.7693H448.154V38.4616H440.461V30.7693Z" fill="black"/>
<path d="M409.692 53.8462H440.462V61.5385H409.692V53.8462Z" fill="black"/>
<path d="M440.461 61.5385H448.154V92.3077H440.461V61.5385Z" fill="black"/>
<path d="M432.769 61.5385H440.461V69.2308H432.769V61.5385Z" fill="black"/>
<path d="M409.692 84.6154H417.385V92.3077H409.692V84.6154Z" fill="black"/>
<path d="M417.385 76.9231H425.077V84.6154H417.385V76.9231Z" fill="black"/>
<path d="M425.077 69.2307H432.769V76.923H425.077V69.2307Z" fill="black"/>
<path d="M440.461 61.5385H448.154V53.8462H440.461V61.5385Z" fill="black"/>
<path d="M589.846 7.69226H597.538V46.1538H589.846V7.69226Z" fill="black"/>
<path d="M620.615 7.69226H628.308V46.1538H620.615V7.69226Z" fill="black"/>
<path d="M605.231 23.0769H612.923V30.7692H605.231V23.0769Z" fill="black"/>
<path d="M597.539 15.3846H605.231V23.077H597.539V15.3846Z" fill="black"/>
<path d="M612.923 30.7693H620.615V38.4616H612.923V30.7693Z" fill="black"/>
<path d="M589.846 53.8462H597.538V84.6154H589.846V53.8462Z" fill="black"/>
<path d="M597.539 84.6154H605.231V92.3077H597.539V84.6154Z" fill="black"/>
<path d="M605.231 76.9231H612.923V84.6154H605.231V76.9231Z" fill="black"/>
<path d="M612.923 84.6154H620.615V92.3077H612.923V84.6154Z" fill="black"/>
<path d="M620.615 53.8462H628.308V84.6154H620.615V53.8462Z" fill="black"/>
<path d="M543.692 7.69226H551.385V46.1538H543.692V7.69226Z" fill="black"/>
<path d="M551.385 7.69226H574.462V15.3846H551.385V7.69226Z" fill="black"/>
<path d="M551.385 23.0769H574.462V30.7692H551.385V23.0769Z" fill="black"/>
<path d="M574.461 15.3846H582.154V23.077H574.461V15.3846Z" fill="black"/>
<path d="M551.385 38.4615H574.462V46.1539H551.385V38.4615Z" fill="black"/>
<path d="M574.461 30.7693H582.154V38.4616H574.461V30.7693Z" fill="black"/>
<path d="M543.692 53.8462H574.462V61.5385H543.692V53.8462Z" fill="black"/>
<path d="M574.461 61.5385H582.154V92.3077H574.461V61.5385Z" fill="black"/>
<path d="M566.769 61.5385H574.461V69.2308H566.769V61.5385Z" fill="black"/>
<path d="M543.692 84.6154H551.385V92.3077H543.692V84.6154Z" fill="black"/>
<path d="M551.385 76.9231H559.077V84.6154H551.385V76.9231Z" fill="black"/>
<path d="M559.077 69.2307H566.769V76.923H559.077V69.2307Z" fill="black"/>
<path d="M574.461 61.5385H582.154V53.8462H574.461V61.5385Z" fill="black"/>
<path d="M723.846 7.69226H731.538V46.1538H723.846V7.69226Z" fill="black"/>
<path d="M754.615 7.69226H762.308V46.1538H754.615V7.69226Z" fill="black"/>
<path d="M739.231 23.0769H746.923V30.7692H739.231V23.0769Z" fill="black"/>
<path d="M731.539 15.3846H739.231V23.077H731.539V15.3846Z" fill="black"/>
<path d="M746.923 30.7693H754.615V38.4616H746.923V30.7693Z" fill="black"/>
<path d="M723.846 53.8462H731.538V84.6154H723.846V53.8462Z" fill="black"/>
<path d="M731.539 84.6154H739.231V92.3077H731.539V84.6154Z" fill="black"/>
<path d="M739.231 76.9231H746.923V84.6154H739.231V76.9231Z" fill="black"/>
<path d="M746.923 84.6154H754.615V92.3077H746.923V84.6154Z" fill="black"/>
<path d="M754.615 53.8462H762.308V84.6154H754.615V53.8462Z" fill="black"/>
<path d="M677.692 7.69226H685.385V46.1538H677.692V7.69226Z" fill="black"/>
<path d="M685.385 7.69226H708.462V15.3846H685.385V7.69226Z" fill="black"/>
<path d="M685.385 23.0769H708.462V30.7692H685.385V23.0769Z" fill="black"/>
<path d="M708.461 15.3846H716.154V23.077H708.461V15.3846Z" fill="black"/>
<path d="M685.385 38.4615H708.462V46.1539H685.385V38.4615Z" fill="black"/>
<path d="M708.461 30.7693H716.154V38.4616H708.461V30.7693Z" fill="black"/>
<path d="M677.692 53.8462H708.462V61.5385H677.692V53.8462Z" fill="black"/>
<path d="M708.461 61.5385H716.154V92.3077H708.461V61.5385Z" fill="black"/>
<path d="M700.769 61.5385H708.461V69.2308H700.769V61.5385Z" fill="black"/>
<path d="M677.692 84.6154H685.385V92.3077H677.692V84.6154Z" fill="black"/>
<path d="M685.385 76.9231H693.077V84.6154H685.385V76.9231Z" fill="black"/>
<path d="M693.077 69.2307H700.769V76.923H693.077V69.2307Z" fill="black"/>
<path d="M708.461 61.5385H716.154V53.8462H708.461V61.5385Z" fill="black"/>
<path d="M857.846 7.69226H865.538V46.1538H857.846V7.69226Z" fill="black"/>
<path d="M888.615 7.69226H896.308V46.1538H888.615V7.69226Z" fill="black"/>
<path d="M873.231 23.0769H880.923V30.7692H873.231V23.0769Z" fill="black"/>
<path d="M865.539 15.3846H873.231V23.077H865.539V15.3846Z" fill="black"/>
<path d="M880.923 30.7693H888.615V38.4616H880.923V30.7693Z" fill="black"/>
<path d="M857.846 53.8462H865.538V84.6154H857.846V53.8462Z" fill="black"/>
<path d="M865.539 84.6154H873.231V92.3077H865.539V84.6154Z" fill="black"/>
<path d="M873.231 76.9231H880.923V84.6154H873.231V76.9231Z" fill="black"/>
<path d="M880.923 84.6154H888.615V92.3077H880.923V84.6154Z" fill="black"/>
<path d="M888.615 53.8462H896.308V84.6154H888.615V53.8462Z" fill="black"/>
<path d="M811.692 7.69226H819.385V46.1538H811.692V7.69226Z" fill="black"/>
<path d="M819.385 7.69226H842.462V15.3846H819.385V7.69226Z" fill="black"/>
<path d="M819.385 23.0769H842.462V30.7692H819.385V23.0769Z" fill="black"/>
<path d="M842.461 15.3846H850.154V23.077H842.461V15.3846Z" fill="black"/>
<path d="M819.385 38.4615H842.462V46.1539H819.385V38.4615Z" fill="black"/>
<path d="M842.461 30.7693H850.154V38.4616H842.461V30.7693Z" fill="black"/>
<path d="M811.692 53.8462H842.462V61.5385H811.692V53.8462Z" fill="black"/>
<path d="M842.461 61.5385H850.154V92.3077H842.461V61.5385Z" fill="black"/>
<path d="M834.769 61.5385H842.461V69.2308H834.769V61.5385Z" fill="black"/>
<path d="M811.692 84.6154H819.385V92.3077H811.692V84.6154Z" fill="black"/>
<path d="M819.385 76.9231H827.077V84.6154H819.385V76.9231Z" fill="black"/>
<path d="M827.077 69.2307H834.769V76.923H827.077V69.2307Z" fill="black"/>
<path d="M842.461 61.5385H850.154V53.8462H842.461V61.5385Z" fill="black"/>
<path d="M991.846 7.69226H999.538V46.1538H991.846V7.69226Z" fill="black"/>
<path d="M1022.62 7.69226H1030.31V46.1538H1022.62V7.69226Z" fill="black"/>
<path d="M1007.23 23.0769H1014.92V30.7692H1007.23V23.0769Z" fill="black"/>
<path d="M999.539 15.3846H1007.23V23.077H999.539V15.3846Z" fill="black"/>
<path d="M1014.92 30.7693H1022.62V38.4616H1014.92V30.7693Z" fill="black"/>
<path d="M991.846 53.8462H999.538V84.6154H991.846V53.8462Z" fill="black"/>
<path d="M999.539 84.6154H1007.23V92.3077H999.539V84.6154Z" fill="black"/>
<path d="M1007.23 76.9231H1014.92V84.6154H1007.23V76.9231Z" fill="black"/>
<path d="M1014.92 84.6154H1022.62V92.3077H1014.92V84.6154Z" fill="black"/>
<path d="M1022.62 53.8462H1030.31V84.6154H1022.62V53.8462Z" fill="black"/>
<path d="M945.692 7.69226H953.385V46.1538H945.692V7.69226Z" fill="black"/>
<path d="M953.385 7.69226H976.462V15.3846H953.385V7.69226Z" fill="black"/>
<path d="M953.385 23.0769H976.462V30.7692H953.385V23.0769Z" fill="black"/>
<path d="M976.461 15.3846H984.154V23.077H976.461V15.3846Z" fill="black"/>
<path d="M953.385 38.4615H976.462V46.1539H953.385V38.4615Z" fill="black"/>
<path d="M976.461 30.7693H984.154V38.4616H976.461V30.7693Z" fill="black"/>
<path d="M945.692 53.8462H976.462V61.5385H945.692V53.8462Z" fill="black"/>
<path d="M976.461 61.5385H984.154V92.3077H976.461V61.5385Z" fill="black"/>
<path d="M968.769 61.5385H976.461V69.2308H968.769V61.5385Z" fill="black"/>
<path d="M945.692 84.6154H953.385V92.3077H945.692V84.6154Z" fill="black"/>
<path d="M953.385 76.9231H961.077V84.6154H953.385V76.9231Z" fill="black"/>
<path d="M961.077 69.2307H968.769V76.923H961.077V69.2307Z" fill="black"/>
<path d="M976.461 61.5385H984.154V53.8462H976.461V61.5385Z" fill="black"/>
<path d="M1125.85 7.69226H1133.54V46.1538H1125.85V7.69226Z" fill="black"/>
<path d="M1156.62 7.69226H1164.31V46.1538H1156.62V7.69226Z" fill="black"/>
<path d="M1141.23 23.0769H1148.92V30.7692H1141.23V23.0769Z" fill="black"/>
<path d="M1133.54 15.3846H1141.23V23.077H1133.54V15.3846Z" fill="black"/>
<path d="M1148.92 30.7693H1156.62V38.4616H1148.92V30.7693Z" fill="black"/>
<path d="M1125.85 53.8462H1133.54V84.6154H1125.85V53.8462Z" fill="black"/>
<path d="M1133.54 84.6154H1141.23V92.3077H1133.54V84.6154Z" fill="black"/>
<path d="M1141.23 76.9231H1148.92V84.6154H1141.23V76.9231Z" fill="black"/>
<path d="M1148.92 84.6154H1156.62V92.3077H1148.92V84.6154Z" fill="black"/>
<path d="M1156.62 53.8462H1164.31V84.6154H1156.62V53.8462Z" fill="black"/>
<path d="M1079.69 7.69226H1087.38V46.1538H1079.69V7.69226Z" fill="black"/>
<path d="M1087.38 7.69226H1110.46V15.3846H1087.38V7.69226Z" fill="black"/>
<path d="M1087.38 23.0769H1110.46V30.7692H1087.38V23.0769Z" fill="black"/>
<path d="M1110.46 15.3846H1118.15V23.077H1110.46V15.3846Z" fill="black"/>
<path d="M1087.38 38.4615H1110.46V46.1539H1087.38V38.4615Z" fill="black"/>
<path d="M1110.46 30.7693H1118.15V38.4616H1110.46V30.7693Z" fill="black"/>
<path d="M1079.69 53.8462H1110.46V61.5385H1079.69V53.8462Z" fill="black"/>
<path d="M1110.46 61.5385H1118.15V92.3077H1110.46V61.5385Z" fill="black"/>
<path d="M1102.77 61.5385H1110.46V69.2308H1102.77V61.5385Z" fill="black"/>
<path d="M1079.69 84.6154H1087.38V92.3077H1079.69V84.6154Z" fill="black"/>
<path d="M1087.38 76.9231H1095.08V84.6154H1087.38V76.9231Z" fill="black"/>
<path d="M1095.08 69.2307H1102.77V76.923H1095.08V69.2307Z" fill="black"/>
<path d="M1110.46 61.5385H1118.15V53.8462H1110.46V61.5385Z" fill="black"/>
<path d="M1259.85 7.69226H1267.54V46.1538H1259.85V7.69226Z" fill="black"/>
<path d="M1290.62 7.69226H1298.31V46.1538H1290.62V7.69226Z" fill="black"/>
<path d="M1275.23 23.0769H1282.92V30.7692H1275.23V23.0769Z" fill="black"/>
<path d="M1267.54 15.3846H1275.23V23.077H1267.54V15.3846Z" fill="black"/>
<path d="M1282.92 30.7693H1290.62V38.4616H1282.92V30.7693Z" fill="black"/>
<path d="M1259.85 53.8462H1267.54V84.6154H1259.85V53.8462Z" fill="black"/>
<path d="M1267.54 84.6154H1275.23V92.3077H1267.54V84.6154Z" fill="black"/>
<path d="M1275.23 76.9231H1282.92V84.6154H1275.23V76.9231Z" fill="black"/>
<path d="M1282.92 84.6154H1290.62V92.3077H1282.92V84.6154Z" fill="black"/>
<path d="M1290.62 53.8462H1298.31V84.6154H1290.62V53.8462Z" fill="black"/>
<path d="M1213.69 7.69226H1221.38V46.1538H1213.69V7.69226Z" fill="black"/>
<path d="M1221.38 7.69226H1244.46V15.3846H1221.38V7.69226Z" fill="black"/>
<path d="M1221.38 23.0769H1244.46V30.7692H1221.38V23.0769Z" fill="black"/>
<path d="M1244.46 15.3846H1252.15V23.077H1244.46V15.3846Z" fill="black"/>
<path d="M1221.38 38.4615H1244.46V46.1539H1221.38V38.4615Z" fill="black"/>
<path d="M1244.46 30.7693H1252.15V38.4616H1244.46V30.7693Z" fill="black"/>
<path d="M1213.69 53.8462H1244.46V61.5385H1213.69V53.8462Z" fill="black"/>
<path d="M1244.46 61.5385H1252.15V92.3077H1244.46V61.5385Z" fill="black"/>
<path d="M1236.77 61.5385H1244.46V69.2308H1236.77V61.5385Z" fill="black"/>
<path d="M1213.69 84.6154H1221.38V92.3077H1213.69V84.6154Z" fill="black"/>
<path d="M1221.38 76.9231H1229.08V84.6154H1221.38V76.9231Z" fill="black"/>
<path d="M1229.08 69.2307H1236.77V76.923H1229.08V69.2307Z" fill="black"/>
<path d="M1244.46 61.5385H1252.15V53.8462H1244.46V61.5385Z" fill="black"/>
<path d="M1393.85 7.69226H1401.54V46.1538H1393.85V7.69226Z" fill="black"/>
<path d="M1424.62 7.69226H1432.31V46.1538H1424.62V7.69226Z" fill="black"/>
<path d="M1409.23 23.0769H1416.92V30.7692H1409.23V23.0769Z" fill="black"/>
<path d="M1401.54 15.3846H1409.23V23.077H1401.54V15.3846Z" fill="black"/>
<path d="M1416.92 30.7693H1424.62V38.4616H1416.92V30.7693Z" fill="black"/>
<path d="M1393.85 53.8462H1401.54V84.6154H1393.85V53.8462Z" fill="black"/>
<path d="M1401.54 84.6154H1409.23V92.3077H1401.54V84.6154Z" fill="black"/>
<path d="M1409.23 76.9231H1416.92V84.6154H1409.23V76.9231Z" fill="black"/>
<path d="M1416.92 84.6154H1424.62V92.3077H1416.92V84.6154Z" fill="black"/>
<path d="M1424.62 53.8462H1432.31V84.6154H1424.62V53.8462Z" fill="black"/>
<path d="M1347.69 7.69226H1355.38V46.1538H1347.69V7.69226Z" fill="black"/>
<path d="M1355.38 7.69226H1378.46V15.3846H1355.38V7.69226Z" fill="black"/>
<path d="M1355.38 23.0769H1378.46V30.7692H1355.38V23.0769Z" fill="black"/>
<path d="M1378.46 15.3846H1386.15V23.077H1378.46V15.3846Z" fill="black"/>
<path d="M1355.38 38.4615H1378.46V46.1539H1355.38V38.4615Z" fill="black"/>
<path d="M1378.46 30.7693H1386.15V38.4616H1378.46V30.7693Z" fill="black"/>
<path d="M1347.69 53.8462H1378.46V61.5385H1347.69V53.8462Z" fill="black"/>
<path d="M1378.46 61.5385H1386.15V92.3077H1378.46V61.5385Z" fill="black"/>
<path d="M1370.77 61.5385H1378.46V69.2308H1370.77V61.5385Z" fill="black"/>
<path d="M1347.69 84.6154H1355.38V92.3077H1347.69V84.6154Z" fill="black"/>
<path d="M1355.38 76.9231H1363.08V84.6154H1355.38V76.9231Z" fill="black"/>
<path d="M1363.08 69.2307H1370.77V76.923H1363.08V69.2307Z" fill="black"/>
<path d="M1378.46 61.5385H1386.15V53.8462H1378.46V61.5385Z" fill="black"/>
</g>
<g opacity="0.01">
<path d="M3.84619 107.692H11.5385V146.154H3.84619V107.692Z" fill="black"/>
<path d="M34.6152 107.692H42.3075V146.154H34.6152V107.692Z" fill="black"/>
<path d="M19.231 123.077H26.9233V130.769H19.231V123.077Z" fill="black"/>
<path d="M11.5386 115.385H19.2309V123.077H11.5386V115.385Z" fill="black"/>
<path d="M26.9229 130.769H34.6152V138.462H26.9229V130.769Z" fill="black"/>
<path d="M3.84619 153.846H11.5385V184.615H3.84619V153.846Z" fill="black"/>
<path d="M11.5386 184.615H19.2309V192.308H11.5386V184.615Z" fill="black"/>
<path d="M19.231 176.923H26.9233V184.615H19.231V176.923Z" fill="black"/>
<path d="M26.9229 184.615H34.6152V192.308H26.9229V184.615Z" fill="black"/>
<path d="M34.6152 153.846H42.3075V184.615H34.6152V153.846Z" fill="black"/>
<path d="M137.846 107.692H145.538V146.154H137.846V107.692Z" fill="black"/>
<path d="M168.615 107.692H176.308V146.154H168.615V107.692Z" fill="black"/>
<path d="M153.231 123.077H160.923V130.769H153.231V123.077Z" fill="black"/>
<path d="M145.539 115.385H153.231V123.077H145.539V115.385Z" fill="black"/>
<path d="M160.923 130.769H168.615V138.462H160.923V130.769Z" fill="black"/>
<path d="M137.846 153.846H145.538V184.615H137.846V153.846Z" fill="black"/>
<path d="M145.539 184.615H153.231V192.308H145.539V184.615Z" fill="black"/>
<path d="M153.231 176.923H160.923V184.615H153.231V176.923Z" fill="black"/>
<path d="M160.923 184.615H168.615V192.308H160.923V184.615Z" fill="black"/>
<path d="M168.615 153.846H176.308V184.615H168.615V153.846Z" fill="black"/>
<path d="M91.6924 107.692H99.3847V146.154H91.6924V107.692Z" fill="black"/>
<path d="M99.3848 107.692H122.462V115.385H99.3848V107.692Z" fill="black"/>
<path d="M99.3848 123.077H122.462V130.769H99.3848V123.077Z" fill="black"/>
<path d="M122.461 115.385H130.154V123.077H122.461V115.385Z" fill="black"/>
<path d="M99.3848 138.462H122.462V146.154H99.3848V138.462Z" fill="black"/>
<path d="M122.461 130.769H130.154V138.462H122.461V130.769Z" fill="black"/>
<path d="M91.6924 153.846H122.462V161.538H91.6924V153.846Z" fill="black"/>
<path d="M122.461 161.538H130.154V192.308H122.461V161.538Z" fill="black"/>
<path d="M114.769 161.538H122.461V169.231H114.769V161.538Z" fill="black"/>
<path d="M91.6924 184.615H99.3847V192.308H91.6924V184.615Z" fill="black"/>
<path d="M99.3848 176.923H107.077V184.615H99.3848V176.923Z" fill="black"/>
<path d="M107.077 169.231H114.769V176.923H107.077V169.231Z" fill="black"/>
<path d="M122.461 161.538H130.154V153.846H122.461V161.538Z" fill="black"/>
<path d="M271.846 107.692H279.538V146.154H271.846V107.692Z" fill="black"/>
<path d="M302.615 107.692H310.308V146.154H302.615V107.692Z" fill="black"/>
<path d="M287.231 123.077H294.923V130.769H287.231V123.077Z" fill="black"/>
<path d="M279.539 115.385H287.231V123.077H279.539V115.385Z" fill="black"/>
<path d="M294.923 130.769H302.615V138.462H294.923V130.769Z" fill="black"/>
<path d="M271.846 153.846H279.538V184.615H271.846V153.846Z" fill="black"/>
<path d="M279.539 184.615H287.231V192.308H279.539V184.615Z" fill="black"/>
<path d="M287.231 176.923H294.923V184.615H287.231V176.923Z" fill="black"/>
<path d="M294.923 184.615H302.615V192.308H294.923V184.615Z" fill="black"/>
<path d="M302.615 153.846H310.308V184.615H302.615V153.846Z" fill="black"/>
<path d="M225.692 107.692H233.385V146.154H225.692V107.692Z" fill="black"/>
<path d="M233.385 107.692H256.462V115.385H233.385V107.692Z" fill="black"/>
<path d="M233.385 123.077H256.462V130.769H233.385V123.077Z" fill="black"/>
<path d="M256.461 115.385H264.154V123.077H256.461V115.385Z" fill="black"/>
<path d="M233.385 138.462H256.462V146.154H233.385V138.462Z" fill="black"/>
<path d="M256.461 130.769H264.154V138.462H256.461V130.769Z" fill="black"/>
<path d="M225.692 153.846H256.462V161.538H225.692V153.846Z" fill="black"/>
<path d="M256.461 161.538H264.154V192.308H256.461V161.538Z" fill="black"/>
<path d="M248.769 161.538H256.461V169.231H248.769V161.538Z" fill="black"/>
<path d="M225.692 184.615H233.385V192.308H225.692V184.615Z" fill="black"/>
<path d="M233.385 176.923H241.077V184.615H233.385V176.923Z" fill="black"/>
<path d="M241.077 169.231H248.769V176.923H241.077V169.231Z" fill="black"/>
<path d="M256.461 161.538H264.154V153.846H256.461V161.538Z" fill="black"/>
<path d="M405.846 107.692H413.538V146.154H405.846V107.692Z" fill="black"/>
<path d="M436.615 107.692H444.308V146.154H436.615V107.692Z" fill="black"/>
<path d="M421.231 123.077H428.923V130.769H421.231V123.077Z" fill="black"/>
<path d="M413.539 115.385H421.231V123.077H413.539V115.385Z" fill="black"/>
<path d="M428.923 130.769H436.615V138.462H428.923V130.769Z" fill="black"/>
<path d="M405.846 153.846H413.538V184.615H405.846V153.846Z" fill="black"/>
<path d="M413.539 184.615H421.231V192.308H413.539V184.615Z" fill="black"/>
<path d="M421.231 176.923H428.923V184.615H421.231V176.923Z" fill="black"/>
<path d="M428.923 184.615H436.615V192.308H428.923V184.615Z" fill="black"/>
<path d="M436.615 153.846H444.308V184.615H436.615V153.846Z" fill="black"/>
<path d="M359.692 107.692H367.385V146.154H359.692V107.692Z" fill="black"/>
<path d="M367.385 107.692H390.462V115.385H367.385V107.692Z" fill="black"/>
<path d="M367.385 123.077H390.462V130.769H367.385V123.077Z" fill="black"/>
<path d="M390.461 115.385H398.154V123.077H390.461V115.385Z" fill="black"/>
<path d="M367.385 138.462H390.462V146.154H367.385V138.462Z" fill="black"/>
<path d="M390.461 130.769H398.154V138.462H390.461V130.769Z" fill="black"/>
<path d="M359.692 153.846H390.462V161.538H359.692V153.846Z" fill="black"/>
<path d="M390.461 161.538H398.154V192.308H390.461V161.538Z" fill="black"/>
<path d="M382.769 161.538H390.461V169.231H382.769V161.538Z" fill="black"/>
<path d="M359.692 184.615H367.385V192.308H359.692V184.615Z" fill="black"/>
<path d="M367.385 176.923H375.077V184.615H367.385V176.923Z" fill="black"/>
<path d="M375.077 169.231H382.769V176.923H375.077V169.231Z" fill="black"/>
<path d="M390.461 161.538H398.154V153.846H390.461V161.538Z" fill="black"/>
<path d="M539.846 107.692H547.538V146.154H539.846V107.692Z" fill="black"/>
<path d="M570.615 107.692H578.308V146.154H570.615V107.692Z" fill="black"/>
<path d="M555.231 123.077H562.923V130.769H555.231V123.077Z" fill="black"/>
<path d="M547.539 115.385H555.231V123.077H547.539V115.385Z" fill="black"/>
<path d="M562.923 130.769H570.615V138.462H562.923V130.769Z" fill="black"/>
<path d="M539.846 153.846H547.538V184.615H539.846V153.846Z" fill="black"/>
<path d="M547.539 184.615H555.231V192.308H547.539V184.615Z" fill="black"/>
<path d="M555.231 176.923H562.923V184.615H555.231V176.923Z" fill="black"/>
<path d="M562.923 184.615H570.615V192.308H562.923V184.615Z" fill="black"/>
<path d="M570.615 153.846H578.308V184.615H570.615V153.846Z" fill="black"/>
<path d="M493.692 107.692H501.385V146.154H493.692V107.692Z" fill="black"/>
<path d="M501.385 107.692H524.462V115.385H501.385V107.692Z" fill="black"/>
<path d="M501.385 123.077H524.462V130.769H501.385V123.077Z" fill="black"/>
<path d="M524.461 115.385H532.154V123.077H524.461V115.385Z" fill="black"/>
<path d="M501.385 138.462H524.462V146.154H501.385V138.462Z" fill="black"/>
<path d="M524.461 130.769H532.154V138.462H524.461V130.769Z" fill="black"/>
<path d="M493.692 153.846H524.462V161.538H493.692V153.846Z" fill="black"/>
<path d="M524.461 161.538H532.154V192.308H524.461V161.538Z" fill="black"/>
<path d="M516.769 161.538H524.461V169.231H516.769V161.538Z" fill="black"/>
<path d="M493.692 184.615H501.385V192.308H493.692V184.615Z" fill="black"/>
<path d="M501.385 176.923H509.077V184.615H501.385V176.923Z" fill="black"/>
<path d="M509.077 169.231H516.769V176.923H509.077V169.231Z" fill="black"/>
<path d="M524.461 161.538H532.154V153.846H524.461V161.538Z" fill="black"/>
<path d="M673.846 107.692H681.538V146.154H673.846V107.692Z" fill="black"/>
<path d="M704.615 107.692H712.308V146.154H704.615V107.692Z" fill="black"/>
<path d="M689.231 123.077H696.923V130.769H689.231V123.077Z" fill="black"/>
<path d="M681.539 115.385H689.231V123.077H681.539V115.385Z" fill="black"/>
<path d="M696.923 130.769H704.615V138.462H696.923V130.769Z" fill="black"/>
<path d="M673.846 153.846H681.538V184.615H673.846V153.846Z" fill="black"/>
<path d="M681.539 184.615H689.231V192.308H681.539V184.615Z" fill="black"/>
<path d="M689.231 176.923H696.923V184.615H689.231V176.923Z" fill="black"/>
<path d="M696.923 184.615H704.615V192.308H696.923V184.615Z" fill="black"/>
<path d="M704.615 153.846H712.308V184.615H704.615V153.846Z" fill="black"/>
<path d="M627.692 107.692H635.385V146.154H627.692V107.692Z" fill="black"/>
<path d="M635.385 107.692H658.462V115.385H635.385V107.692Z" fill="black"/>
<path d="M635.385 123.077H658.462V130.769H635.385V123.077Z" fill="black"/>
<path d="M658.461 115.385H666.154V123.077H658.461V115.385Z" fill="black"/>
<path d="M635.385 138.462H658.462V146.154H635.385V138.462Z" fill="black"/>
<path d="M658.461 130.769H666.154V138.462H658.461V130.769Z" fill="black"/>
<path d="M627.692 153.846H658.462V161.538H627.692V153.846Z" fill="black"/>
<path d="M658.461 161.538H666.154V192.308H658.461V161.538Z" fill="black"/>
<path d="M650.769 161.538H658.461V169.231H650.769V161.538Z" fill="black"/>
<path d="M627.692 184.615H635.385V192.308H627.692V184.615Z" fill="black"/>
<path d="M635.385 176.923H643.077V184.615H635.385V176.923Z" fill="black"/>
<path d="M643.077 169.231H650.769V176.923H643.077V169.231Z" fill="black"/>
<path d="M658.461 161.538H666.154V153.846H658.461V161.538Z" fill="black"/>
<path d="M807.846 107.692H815.538V146.154H807.846V107.692Z" fill="black"/>
<path d="M838.615 107.692H846.308V146.154H838.615V107.692Z" fill="black"/>
<path d="M823.231 123.077H830.923V130.769H823.231V123.077Z" fill="black"/>
<path d="M815.539 115.385H823.231V123.077H815.539V115.385Z" fill="black"/>
<path d="M830.923 130.769H838.615V138.462H830.923V130.769Z" fill="black"/>
<path d="M807.846 153.846H815.538V184.615H807.846V153.846Z" fill="black"/>
<path d="M815.539 184.615H823.231V192.308H815.539V184.615Z" fill="black"/>
<path d="M823.231 176.923H830.923V184.615H823.231V176.923Z" fill="black"/>
<path d="M830.923 184.615H838.615V192.308H830.923V184.615Z" fill="black"/>
<path d="M838.615 153.846H846.308V184.615H838.615V153.846Z" fill="black"/>
<path d="M761.692 107.692H769.385V146.154H761.692V107.692Z" fill="black"/>
<path d="M769.385 107.692H792.462V115.385H769.385V107.692Z" fill="black"/>
<path d="M769.385 123.077H792.462V130.769H769.385V123.077Z" fill="black"/>
<path d="M792.461 115.385H800.154V123.077H792.461V115.385Z" fill="black"/>
<path d="M769.385 138.462H792.462V146.154H769.385V138.462Z" fill="black"/>
<path d="M792.461 130.769H800.154V138.462H792.461V130.769Z" fill="black"/>
<path d="M761.692 153.846H792.462V161.538H761.692V153.846Z" fill="black"/>
<path d="M792.461 161.538H800.154V192.308H792.461V161.538Z" fill="black"/>
<path d="M784.769 161.538H792.461V169.231H784.769V161.538Z" fill="black"/>
<path d="M761.692 184.615H769.385V192.308H761.692V184.615Z" fill="black"/>
<path d="M769.385 176.923H777.077V184.615H769.385V176.923Z" fill="black"/>
<path d="M777.077 169.231H784.769V176.923H777.077V169.231Z" fill="black"/>
<path d="M792.461 161.538H800.154V153.846H792.461V161.538Z" fill="black"/>
<path d="M941.846 107.692H949.538V146.154H941.846V107.692Z" fill="black"/>
<path d="M972.615 107.692H980.308V146.154H972.615V107.692Z" fill="black"/>
<path d="M957.231 123.077H964.923V130.769H957.231V123.077Z" fill="black"/>
<path d="M949.539 115.385H957.231V123.077H949.539V115.385Z" fill="black"/>
<path d="M964.923 130.769H972.615V138.462H964.923V130.769Z" fill="black"/>
<path d="M941.846 153.846H949.538V184.615H941.846V153.846Z" fill="black"/>
<path d="M949.539 184.615H957.231V192.308H949.539V184.615Z" fill="black"/>
<path d="M957.231 176.923H964.923V184.615H957.231V176.923Z" fill="black"/>
<path d="M964.923 184.615H972.615V192.308H964.923V184.615Z" fill="black"/>
<path d="M972.615 153.846H980.308V184.615H972.615V153.846Z" fill="black"/>
<path d="M895.692 107.692H903.385V146.154H895.692V107.692Z" fill="black"/>
<path d="M903.385 107.692H926.462V115.385H903.385V107.692Z" fill="black"/>
<path d="M903.385 123.077H926.462V130.769H903.385V123.077Z" fill="black"/>
<path d="M926.461 115.385H934.154V123.077H926.461V115.385Z" fill="black"/>
<path d="M903.385 138.462H926.462V146.154H903.385V138.462Z" fill="black"/>
<path d="M926.461 130.769H934.154V138.462H926.461V130.769Z" fill="black"/>
<path d="M895.692 153.846H926.462V161.538H895.692V153.846Z" fill="black"/>
<path d="M926.461 161.538H934.154V192.308H926.461V161.538Z" fill="black"/>
<path d="M918.769 161.538H926.461V169.231H918.769V161.538Z" fill="black"/>
<path d="M895.692 184.615H903.385V192.308H895.692V184.615Z" fill="black"/>
<path d="M903.385 176.923H911.077V184.615H903.385V176.923Z" fill="black"/>
<path d="M911.077 169.231H918.769V176.923H911.077V169.231Z" fill="black"/>
<path d="M926.461 161.538H934.154V153.846H926.461V161.538Z" fill="black"/>
<path d="M1075.85 107.692H1083.54V146.154H1075.85V107.692Z" fill="black"/>
<path d="M1106.62 107.692H1114.31V146.154H1106.62V107.692Z" fill="black"/>
<path d="M1091.23 123.077H1098.92V130.769H1091.23V123.077Z" fill="black"/>
<path d="M1083.54 115.385H1091.23V123.077H1083.54V115.385Z" fill="black"/>
<path d="M1098.92 130.769H1106.62V138.462H1098.92V130.769Z" fill="black"/>
<path d="M1075.85 153.846H1083.54V184.615H1075.85V153.846Z" fill="black"/>
<path d="M1083.54 184.615H1091.23V192.308H1083.54V184.615Z" fill="black"/>
<path d="M1091.23 176.923H1098.92V184.615H1091.23V176.923Z" fill="black"/>
<path d="M1098.92 184.615H1106.62V192.308H1098.92V184.615Z" fill="black"/>
<path d="M1106.62 153.846H1114.31V184.615H1106.62V153.846Z" fill="black"/>
<path d="M1029.69 107.692H1037.38V146.154H1029.69V107.692Z" fill="black"/>
<path d="M1037.38 107.692H1060.46V115.385H1037.38V107.692Z" fill="black"/>
<path d="M1037.38 123.077H1060.46V130.769H1037.38V123.077Z" fill="black"/>
<path d="M1060.46 115.385H1068.15V123.077H1060.46V115.385Z" fill="black"/>
<path d="M1037.38 138.462H1060.46V146.154H1037.38V138.462Z" fill="black"/>
<path d="M1060.46 130.769H1068.15V138.462H1060.46V130.769Z" fill="black"/>
<path d="M1029.69 153.846H1060.46V161.538H1029.69V153.846Z" fill="black"/>
<path d="M1060.46 161.538H1068.15V192.308H1060.46V161.538Z" fill="black"/>
<path d="M1052.77 161.538H1060.46V169.231H1052.77V161.538Z" fill="black"/>
<path d="M1029.69 184.615H1037.38V192.308H1029.69V184.615Z" fill="black"/>
<path d="M1037.38 176.923H1045.08V184.615H1037.38V176.923Z" fill="black"/>
<path d="M1045.08 169.231H1052.77V176.923H1045.08V169.231Z" fill="black"/>
<path d="M1060.46 161.538H1068.15V153.846H1060.46V161.538Z" fill="black"/>
<path d="M1209.85 107.692H1217.54V146.154H1209.85V107.692Z" fill="black"/>
<path d="M1240.62 107.692H1248.31V146.154H1240.62V107.692Z" fill="black"/>
<path d="M1225.23 123.077H1232.92V130.769H1225.23V123.077Z" fill="black"/>
<path d="M1217.54 115.385H1225.23V123.077H1217.54V115.385Z" fill="black"/>
<path d="M1232.92 130.769H1240.62V138.462H1232.92V130.769Z" fill="black"/>
<path d="M1209.85 153.846H1217.54V184.615H1209.85V153.846Z" fill="black"/>
<path d="M1217.54 184.615H1225.23V192.308H1217.54V184.615Z" fill="black"/>
<path d="M1225.23 176.923H1232.92V184.615H1225.23V176.923Z" fill="black"/>
<path d="M1232.92 184.615H1240.62V192.308H1232.92V184.615Z" fill="black"/>
<path d="M1240.62 153.846H1248.31V184.615H1240.62V153.846Z" fill="black"/>
<path d="M1163.69 107.692H1171.38V146.154H1163.69V107.692Z" fill="black"/>
<path d="M1171.38 107.692H1194.46V115.385H1171.38V107.692Z" fill="black"/>
<path d="M1171.38 123.077H1194.46V130.769H1171.38V123.077Z" fill="black"/>
<path d="M1194.46 115.385H1202.15V123.077H1194.46V115.385Z" fill="black"/>
<path d="M1171.38 138.462H1194.46V146.154H1171.38V138.462Z" fill="black"/>
<path d="M1194.46 130.769H1202.15V138.462H1194.46V130.769Z" fill="black"/>
<path d="M1163.69 153.846H1194.46V161.538H1163.69V153.846Z" fill="black"/>
<path d="M1194.46 161.538H1202.15V192.308H1194.46V161.538Z" fill="black"/>
<path d="M1186.77 161.538H1194.46V169.231H1186.77V161.538Z" fill="black"/>
<path d="M1163.69 184.615H1171.38V192.308H1163.69V184.615Z" fill="black"/>
<path d="M1171.38 176.923H1179.08V184.615H1171.38V176.923Z" fill="black"/>
<path d="M1179.08 169.231H1186.77V176.923H1179.08V169.231Z" fill="black"/>
<path d="M1194.46 161.538H1202.15V153.846H1194.46V161.538Z" fill="black"/>
<path d="M1343.85 107.692H1351.54V146.154H1343.85V107.692Z" fill="black"/>
<path d="M1374.62 107.692H1382.31V146.154H1374.62V107.692Z" fill="black"/>
<path d="M1359.23 123.077H1366.92V130.769H1359.23V123.077Z" fill="black"/>
<path d="M1351.54 115.385H1359.23V123.077H1351.54V115.385Z" fill="black"/>
<path d="M1366.92 130.769H1374.62V138.462H1366.92V130.769Z" fill="black"/>
<path d="M1343.85 153.846H1351.54V184.615H1343.85V153.846Z" fill="black"/>
<path d="M1351.54 184.615H1359.23V192.308H1351.54V184.615Z" fill="black"/>
<path d="M1359.23 176.923H1366.92V184.615H1359.23V176.923Z" fill="black"/>
<path d="M1366.92 184.615H1374.62V192.308H1366.92V184.615Z" fill="black"/>
<path d="M1374.62 153.846H1382.31V184.615H1374.62V153.846Z" fill="black"/>
<path d="M1297.69 107.692H1305.38V146.154H1297.69V107.692Z" fill="black"/>
<path d="M1305.38 107.692H1328.46V115.385H1305.38V107.692Z" fill="black"/>
<path d="M1305.38 123.077H1328.46V130.769H1305.38V123.077Z" fill="black"/>
<path d="M1328.46 115.385H1336.15V123.077H1328.46V115.385Z" fill="black"/>
<path d="M1305.38 138.462H1328.46V146.154H1305.38V138.462Z" fill="black"/>
<path d="M1328.46 130.769H1336.15V138.462H1328.46V130.769Z" fill="black"/>
<path d="M1297.69 153.846H1328.46V161.538H1297.69V153.846Z" fill="black"/>
<path d="M1328.46 161.538H1336.15V192.308H1328.46V161.538Z" fill="black"/>
<path d="M1320.77 161.538H1328.46V169.231H1320.77V161.538Z" fill="black"/>
<path d="M1297.69 184.615H1305.38V192.308H1297.69V184.615Z" fill="black"/>
<path d="M1305.38 176.923H1313.08V184.615H1305.38V176.923Z" fill="black"/>
<path d="M1313.08 169.231H1320.77V176.923H1313.08V169.231Z" fill="black"/>
<path d="M1328.46 161.538H1336.15V153.846H1328.46V161.538Z" fill="black"/>
<path d="M1431.69 107.692H1439.38V146.154H1431.69V107.692Z" fill="black"/>
<path d="M1439.38 107.692H1462.46V115.385H1439.38V107.692Z" fill="black"/>
<path d="M1439.38 123.077H1462.46V130.769H1439.38V123.077Z" fill="black"/>
<path d="M1439.38 138.462H1462.46V146.154H1439.38V138.462Z" fill="black"/>
<path d="M1431.69 153.846H1462.46V161.538H1431.69V153.846Z" fill="black"/>
<path d="M1431.69 184.615H1439.38V192.308H1431.69V184.615Z" fill="black"/>
<path d="M1439.38 176.923H1447.08V184.615H1439.38V176.923Z" fill="black"/>
</g>
<g opacity="0.01">
<path d="M87.8462 207.692H95.5385V246.154H87.8462V207.692Z" fill="black"/>
<path d="M118.615 207.692H126.308V246.154H118.615V207.692Z" fill="black"/>
<path d="M103.231 223.077H110.923V230.769H103.231V223.077Z" fill="black"/>
<path d="M95.5386 215.385H103.231V223.077H95.5386V215.385Z" fill="black"/>
<path d="M110.923 230.769H118.615V238.462H110.923V230.769Z" fill="black"/>
<path d="M87.8462 253.846H95.5385V284.615H87.8462V253.846Z" fill="black"/>
<path d="M95.5386 284.615H103.231V292.308H95.5386V284.615Z" fill="black"/>
<path d="M103.231 276.923H110.923V284.615H103.231V276.923Z" fill="black"/>
<path d="M110.923 284.615H118.615V292.308H110.923V284.615Z" fill="black"/>
<path d="M118.615 253.846H126.308V284.615H118.615V253.846Z" fill="black"/>
<path d="M41.6924 207.692H49.3847V246.154H41.6924V207.692Z" fill="black"/>
<path d="M49.3848 207.692H72.4617V215.385H49.3848V207.692Z" fill="black"/>
<path d="M49.3848 223.077H72.4617V230.769H49.3848V223.077Z" fill="black"/>
<path d="M72.4614 215.385H80.1537V223.077H72.4614V215.385Z" fill="black"/>
<path d="M49.3848 238.462H72.4617V246.154H49.3848V238.462Z" fill="black"/>
<path d="M72.4614 230.769H80.1537V238.462H72.4614V230.769Z" fill="black"/>
<path d="M41.6924 253.846H72.4616V261.538H41.6924V253.846Z" fill="black"/>
<path d="M72.4614 261.538H80.1537V292.308H72.4614V261.538Z" fill="black"/>
<path d="M64.769 261.538H72.4614V269.231H64.769V261.538Z" fill="black"/>
<path d="M41.6924 284.615H49.3847V292.308H41.6924V284.615Z" fill="black"/>
<path d="M49.3848 276.923H57.0771V284.615H49.3848V276.923Z" fill="black"/>
<path d="M57.0771 269.231H64.7695V276.923H57.0771V269.231Z" fill="black"/>
<path d="M72.4614 261.538H80.1537V253.846H72.4614V261.538Z" fill="black"/>
<path d="M221.846 207.692H229.538V246.154H221.846V207.692Z" fill="black"/>
<path d="M252.615 207.692H260.308V246.154H252.615V207.692Z" fill="black"/>
<path d="M237.231 223.077H244.923V230.769H237.231V223.077Z" fill="black"/>
<path d="M229.539 215.385H237.231V223.077H229.539V215.385Z" fill="black"/>
<path d="M244.923 230.769H252.615V238.462H244.923V230.769Z" fill="black"/>
<path d="M221.846 253.846H229.538V284.615H221.846V253.846Z" fill="black"/>
<path d="M229.539 284.615H237.231V292.308H229.539V284.615Z" fill="black"/>
<path d="M237.231 276.923H244.923V284.615H237.231V276.923Z" fill="black"/>
<path d="M244.923 284.615H252.615V292.308H244.923V284.615Z" fill="black"/>
<path d="M252.615 253.846H260.308V284.615H252.615V253.846Z" fill="black"/>
<path d="M175.692 207.692H183.385V246.154H175.692V207.692Z" fill="black"/>
<path d="M183.385 207.692H206.462V215.385H183.385V207.692Z" fill="black"/>
<path d="M183.385 223.077H206.462V230.769H183.385V223.077Z" fill="black"/>
<path d="M206.461 215.385H214.154V223.077H206.461V215.385Z" fill="black"/>
<path d="M183.385 238.462H206.462V246.154H183.385V238.462Z" fill="black"/>
<path d="M206.461 230.769H214.154V238.462H206.461V230.769Z" fill="black"/>
<path d="M175.692 253.846H206.462V261.538H175.692V253.846Z" fill="black"/>
<path d="M206.461 261.538H214.154V292.308H206.461V261.538Z" fill="black"/>
<path d="M198.769 261.538H206.461V269.231H198.769V261.538Z" fill="black"/>
<path d="M175.692 284.615H183.385V292.308H175.692V284.615Z" fill="black"/>
<path d="M183.385 276.923H191.077V284.615H183.385V276.923Z" fill="black"/>
<path d="M191.077 269.231H198.769V276.923H191.077V269.231Z" fill="black"/>
<path d="M206.461 261.538H214.154V253.846H206.461V261.538Z" fill="black"/>
<path d="M355.846 207.692H363.538V246.154H355.846V207.692Z" fill="black"/>
<path d="M386.615 207.692H394.308V246.154H386.615V207.692Z" fill="black"/>
<path d="M371.231 223.077H378.923V230.769H371.231V223.077Z" fill="black"/>
<path d="M363.539 215.385H371.231V223.077H363.539V215.385Z" fill="black"/>
<path d="M378.923 230.769H386.615V238.462H378.923V230.769Z" fill="black"/>
<path d="M355.846 253.846H363.538V284.615H355.846V253.846Z" fill="black"/>
<path d="M363.539 284.615H371.231V292.308H363.539V284.615Z" fill="black"/>
<path d="M371.231 276.923H378.923V284.615H371.231V276.923Z" fill="black"/>
<path d="M378.923 284.615H386.615V292.308H378.923V284.615Z" fill="black"/>
<path d="M386.615 253.846H394.308V284.615H386.615V253.846Z" fill="black"/>
<path d="M309.692 207.692H317.385V246.154H309.692V207.692Z" fill="black"/>
<path d="M317.385 207.692H340.462V215.385H317.385V207.692Z" fill="black"/>
<path d="M317.385 223.077H340.462V230.769H317.385V223.077Z" fill="black"/>
<path d="M340.461 215.385H348.154V223.077H340.461V215.385Z" fill="black"/>
<path d="M317.385 238.462H340.462V246.154H317.385V238.462Z" fill="black"/>
<path d="M340.461 230.769H348.154V238.462H340.461V230.769Z" fill="black"/>
<path d="M309.692 253.846H340.462V261.538H309.692V253.846Z" fill="black"/>
<path d="M340.461 261.538H348.154V292.308H340.461V261.538Z" fill="black"/>
<path d="M332.769 261.538H340.461V269.231H332.769V261.538Z" fill="black"/>
<path d="M309.692 284.615H317.385V292.308H309.692V284.615Z" fill="black"/>
<path d="M317.385 276.923H325.077V284.615H317.385V276.923Z" fill="black"/>
<path d="M325.077 269.231H332.769V276.923H325.077V269.231Z" fill="black"/>
<path d="M340.461 261.538H348.154V253.846H340.461V261.538Z" fill="black"/>
<path d="M489.846 207.692H497.538V246.154H489.846V207.692Z" fill="black"/>
<path d="M520.615 207.692H528.308V246.154H520.615V207.692Z" fill="black"/>
<path d="M505.231 223.077H512.923V230.769H505.231V223.077Z" fill="black"/>
<path d="M497.539 215.385H505.231V223.077H497.539V215.385Z" fill="black"/>
<path d="M512.923 230.769H520.615V238.462H512.923V230.769Z" fill="black"/>
<path d="M489.846 253.846H497.538V284.615H489.846V253.846Z" fill="black"/>
<path d="M497.539 284.615H505.231V292.308H497.539V284.615Z" fill="black"/>
<path d="M505.231 276.923H512.923V284.615H505.231V276.923Z" fill="black"/>
<path d="M512.923 284.615H520.615V292.308H512.923V284.615Z" fill="black"/>
<path d="M520.615 253.846H528.308V284.615H520.615V253.846Z" fill="black"/>
<path d="M443.692 207.692H451.385V246.154H443.692V207.692Z" fill="black"/>
<path d="M451.385 207.692H474.462V215.385H451.385V207.692Z" fill="black"/>
<path d="M451.385 223.077H474.462V230.769H451.385V223.077Z" fill="black"/>
<path d="M474.461 215.385H482.154V223.077H474.461V215.385Z" fill="black"/>
<path d="M451.385 238.462H474.462V246.154H451.385V238.462Z" fill="black"/>
<path d="M474.461 230.769H482.154V238.462H474.461V230.769Z" fill="black"/>
<path d="M443.692 253.846H474.462V261.538H443.692V253.846Z" fill="black"/>
<path d="M474.461 261.538H482.154V292.308H474.461V261.538Z" fill="black"/>
<path d="M466.769 261.538H474.461V269.231H466.769V261.538Z" fill="black"/>
<path d="M443.692 284.615H451.385V292.308H443.692V284.615Z" fill="black"/>
<path d="M451.385 276.923H459.077V284.615H451.385V276.923Z" fill="black"/>
<path d="M459.077 269.231H466.769V276.923H459.077V269.231Z" fill="black"/>
<path d="M474.461 261.538H482.154V253.846H474.461V261.538Z" fill="black"/>
<path d="M623.846 207.692H631.538V246.154H623.846V207.692Z" fill="black"/>
<path d="M654.615 207.692H662.308V246.154H654.615V207.692Z" fill="black"/>
<path d="M639.231 223.077H646.923V230.769H639.231V223.077Z" fill="black"/>
<path d="M631.539 215.385H639.231V223.077H631.539V215.385Z" fill="black"/>
<path d="M646.923 230.769H654.615V238.462H646.923V230.769Z" fill="black"/>
<path d="M623.846 253.846H631.538V284.615H623.846V253.846Z" fill="black"/>
<path d="M631.539 284.615H639.231V292.308H631.539V284.615Z" fill="black"/>
<path d="M639.231 276.923H646.923V284.615H639.231V276.923Z" fill="black"/>
<path d="M646.923 284.615H654.615V292.308H646.923V284.615Z" fill="black"/>
<path d="M654.615 253.846H662.308V284.615H654.615V253.846Z" fill="black"/>
<path d="M577.692 207.692H585.385V246.154H577.692V207.692Z" fill="black"/>
<path d="M585.385 207.692H608.462V215.385H585.385V207.692Z" fill="black"/>
<path d="M585.385 223.077H608.462V230.769H585.385V223.077Z" fill="black"/>
<path d="M608.461 215.385H616.154V223.077H608.461V215.385Z" fill="black"/>
<path d="M585.385 238.462H608.462V246.154H585.385V238.462Z" fill="black"/>
<path d="M608.461 230.769H616.154V238.462H608.461V230.769Z" fill="black"/>
<path d="M577.692 253.846H608.462V261.538H577.692V253.846Z" fill="black"/>
<path d="M608.461 261.538H616.154V292.308H608.461V261.538Z" fill="black"/>
<path d="M600.769 261.538H608.461V269.231H600.769V261.538Z" fill="black"/>
<path d="M577.692 284.615H585.385V292.308H577.692V284.615Z" fill="black"/>
<path d="M585.385 276.923H593.077V284.615H585.385V276.923Z" fill="black"/>
<path d="M593.077 269.231H600.769V276.923H593.077V269.231Z" fill="black"/>
<path d="M608.461 261.538H616.154V253.846H608.461V261.538Z" fill="black"/>
<path d="M757.846 207.692H765.538V246.154H757.846V207.692Z" fill="black"/>
<path d="M788.615 207.692H796.308V246.154H788.615V207.692Z" fill="black"/>
<path d="M773.231 223.077H780.923V230.769H773.231V223.077Z" fill="black"/>
<path d="M765.539 215.385H773.231V223.077H765.539V215.385Z" fill="black"/>
<path d="M780.923 230.769H788.615V238.462H780.923V230.769Z" fill="black"/>
<path d="M757.846 253.846H765.538V284.615H757.846V253.846Z" fill="black"/>
<path d="M765.539 284.615H773.231V292.308H765.539V284.615Z" fill="black"/>
<path d="M773.231 276.923H780.923V284.615H773.231V276.923Z" fill="black"/>
<path d="M780.923 284.615H788.615V292.308H780.923V284.615Z" fill="black"/>
<path d="M788.615 253.846H796.308V284.615H788.615V253.846Z" fill="black"/>
<path d="M711.692 207.692H719.385V246.154H711.692V207.692Z" fill="black"/>
<path d="M719.385 207.692H742.462V215.385H719.385V207.692Z" fill="black"/>
<path d="M719.385 223.077H742.462V230.769H719.385V223.077Z" fill="black"/>
<path d="M742.461 215.385H750.154V223.077H742.461V215.385Z" fill="black"/>
<path d="M719.385 238.462H742.462V246.154H719.385V238.462Z" fill="black"/>
<path d="M742.461 230.769H750.154V238.462H742.461V230.769Z" fill="black"/>
<path d="M711.692 253.846H742.462V261.538H711.692V253.846Z" fill="black"/>
<path d="M742.461 261.538H750.154V292.308H742.461V261.538Z" fill="black"/>
<path d="M734.769 261.538H742.461V269.231H734.769V261.538Z" fill="black"/>
<path d="M711.692 284.615H719.385V292.308H711.692V284.615Z" fill="black"/>
<path d="M719.385 276.923H727.077V284.615H719.385V276.923Z" fill="black"/>
<path d="M727.077 269.231H734.769V276.923H727.077V269.231Z" fill="black"/>
<path d="M742.461 261.538H750.154V253.846H742.461V261.538Z" fill="black"/>
<path d="M891.846 207.692H899.538V246.154H891.846V207.692Z" fill="black"/>
<path d="M922.615 207.692H930.308V246.154H922.615V207.692Z" fill="black"/>
<path d="M907.231 223.077H914.923V230.769H907.231V223.077Z" fill="black"/>
<path d="M899.539 215.385H907.231V223.077H899.539V215.385Z" fill="black"/>
<path d="M914.923 230.769H922.615V238.462H914.923V230.769Z" fill="black"/>
<path d="M891.846 253.846H899.538V284.615H891.846V253.846Z" fill="black"/>
<path d="M899.539 284.615H907.231V292.308H899.539V284.615Z" fill="black"/>
<path d="M907.231 276.923H914.923V284.615H907.231V276.923Z" fill="black"/>
<path d="M914.923 284.615H922.615V292.308H914.923V284.615Z" fill="black"/>
<path d="M922.615 253.846H930.308V284.615H922.615V253.846Z" fill="black"/>
<path d="M845.692 207.692H853.385V246.154H845.692V207.692Z" fill="black"/>
<path d="M853.385 207.692H876.462V215.385H853.385V207.692Z" fill="black"/>
<path d="M853.385 223.077H876.462V230.769H853.385V223.077Z" fill="black"/>
<path d="M876.461 215.385H884.154V223.077H876.461V215.385Z" fill="black"/>
<path d="M853.385 238.462H876.462V246.154H853.385V238.462Z" fill="black"/>
<path d="M876.461 230.769H884.154V238.462H876.461V230.769Z" fill="black"/>
<path d="M845.692 253.846H876.462V261.538H845.692V253.846Z" fill="black"/>
<path d="M876.461 261.538H884.154V292.308H876.461V261.538Z" fill="black"/>
<path d="M868.769 261.538H876.461V269.231H868.769V261.538Z" fill="black"/>
<path d="M845.692 284.615H853.385V292.308H845.692V284.615Z" fill="black"/>
<path d="M853.385 276.923H861.077V284.615H853.385V276.923Z" fill="black"/>
<path d="M861.077 269.231H868.769V276.923H861.077V269.231Z" fill="black"/>
<path d="M876.461 261.538H884.154V253.846H876.461V261.538Z" fill="black"/>
<path d="M1025.85 207.692H1033.54V246.154H1025.85V207.692Z" fill="black"/>
<path d="M1056.62 207.692H1064.31V246.154H1056.62V207.692Z" fill="black"/>
<path d="M1041.23 223.077H1048.92V230.769H1041.23V223.077Z" fill="black"/>
<path d="M1033.54 215.385H1041.23V223.077H1033.54V215.385Z" fill="black"/>
<path d="M1048.92 230.769H1056.62V238.462H1048.92V230.769Z" fill="black"/>
<path d="M1025.85 253.846H1033.54V284.615H1025.85V253.846Z" fill="black"/>
<path d="M1033.54 284.615H1041.23V292.308H1033.54V284.615Z" fill="black"/>
<path d="M1041.23 276.923H1048.92V284.615H1041.23V276.923Z" fill="black"/>
<path d="M1048.92 284.615H1056.62V292.308H1048.92V284.615Z" fill="black"/>
<path d="M1056.62 253.846H1064.31V284.615H1056.62V253.846Z" fill="black"/>
<path d="M979.692 207.692H987.385V246.154H979.692V207.692Z" fill="black"/>
<path d="M987.385 207.692H1010.46V215.385H987.385V207.692Z" fill="black"/>
<path d="M987.385 223.077H1010.46V230.769H987.385V223.077Z" fill="black"/>
<path d="M1010.46 215.385H1018.15V223.077H1010.46V215.385Z" fill="black"/>
<path d="M987.385 238.462H1010.46V246.154H987.385V238.462Z" fill="black"/>
<path d="M1010.46 230.769H1018.15V238.462H1010.46V230.769Z" fill="black"/>
<path d="M979.692 253.846H1010.46V261.538H979.692V253.846Z" fill="black"/>
<path d="M1010.46 261.538H1018.15V292.308H1010.46V261.538Z" fill="black"/>
<path d="M1002.77 261.538H1010.46V269.231H1002.77V261.538Z" fill="black"/>
<path d="M979.692 284.615H987.385V292.308H979.692V284.615Z" fill="black"/>
<path d="M987.385 276.923H995.077V284.615H987.385V276.923Z" fill="black"/>
<path d="M995.077 269.231H1002.77V276.923H995.077V269.231Z" fill="black"/>
<path d="M1010.46 261.538H1018.15V253.846H1010.46V261.538Z" fill="black"/>
<path d="M1159.85 207.692H1167.54V246.154H1159.85V207.692Z" fill="black"/>
<path d="M1190.62 207.692H1198.31V246.154H1190.62V207.692Z" fill="black"/>
<path d="M1175.23 223.077H1182.92V230.769H1175.23V223.077Z" fill="black"/>
<path d="M1167.54 215.385H1175.23V223.077H1167.54V215.385Z" fill="black"/>
<path d="M1182.92 230.769H1190.62V238.462H1182.92V230.769Z" fill="black"/>
<path d="M1159.85 253.846H1167.54V284.615H1159.85V253.846Z" fill="black"/>
<path d="M1167.54 284.615H1175.23V292.308H1167.54V284.615Z" fill="black"/>
<path d="M1175.23 276.923H1182.92V284.615H1175.23V276.923Z" fill="black"/>
<path d="M1182.92 284.615H1190.62V292.308H1182.92V284.615Z" fill="black"/>
<path d="M1190.62 253.846H1198.31V284.615H1190.62V253.846Z" fill="black"/>
<path d="M1113.69 207.692H1121.38V246.154H1113.69V207.692Z" fill="black"/>
<path d="M1121.38 207.692H1144.46V215.385H1121.38V207.692Z" fill="black"/>
<path d="M1121.38 223.077H1144.46V230.769H1121.38V223.077Z" fill="black"/>
<path d="M1144.46 215.385H1152.15V223.077H1144.46V215.385Z" fill="black"/>
<path d="M1121.38 238.462H1144.46V246.154H1121.38V238.462Z" fill="black"/>
<path d="M1144.46 230.769H1152.15V238.462H1144.46V230.769Z" fill="black"/>
<path d="M1113.69 253.846H1144.46V261.538H1113.69V253.846Z" fill="black"/>
<path d="M1144.46 261.538H1152.15V292.308H1144.46V261.538Z" fill="black"/>
<path d="M1136.77 261.538H1144.46V269.231H1136.77V261.538Z" fill="black"/>
<path d="M1113.69 284.615H1121.38V292.308H1113.69V284.615Z" fill="black"/>
<path d="M1121.38 276.923H1129.08V284.615H1121.38V276.923Z" fill="black"/>
<path d="M1129.08 269.231H1136.77V276.923H1129.08V269.231Z" fill="black"/>
<path d="M1144.46 261.538H1152.15V253.846H1144.46V261.538Z" fill="black"/>
<path d="M1293.85 207.692H1301.54V246.154H1293.85V207.692Z" fill="black"/>
<path d="M1324.62 207.692H1332.31V246.154H1324.62V207.692Z" fill="black"/>
<path d="M1309.23 223.077H1316.92V230.769H1309.23V223.077Z" fill="black"/>
<path d="M1301.54 215.385H1309.23V223.077H1301.54V215.385Z" fill="black"/>
<path d="M1316.92 230.769H1324.62V238.462H1316.92V230.769Z" fill="black"/>
<path d="M1293.85 253.846H1301.54V284.615H1293.85V253.846Z" fill="black"/>
<path d="M1301.54 284.615H1309.23V292.308H1301.54V284.615Z" fill="black"/>
<path d="M1309.23 276.923H1316.92V284.615H1309.23V276.923Z" fill="black"/>
<path d="M1316.92 284.615H1324.62V292.308H1316.92V284.615Z" fill="black"/>
<path d="M1324.62 253.846H1332.31V284.615H1324.62V253.846Z" fill="black"/>
<path d="M1247.69 207.692H1255.38V246.154H1247.69V207.692Z" fill="black"/>
<path d="M1255.38 207.692H1278.46V215.385H1255.38V207.692Z" fill="black"/>
<path d="M1255.38 223.077H1278.46V230.769H1255.38V223.077Z" fill="black"/>
<path d="M1278.46 215.385H1286.15V223.077H1278.46V215.385Z" fill="black"/>
<path d="M1255.38 238.462H1278.46V246.154H1255.38V238.462Z" fill="black"/>
<path d="M1278.46 230.769H1286.15V238.462H1278.46V230.769Z" fill="black"/>
<path d="M1247.69 253.846H1278.46V261.538H1247.69V253.846Z" fill="black"/>
<path d="M1278.46 261.538H1286.15V292.308H1278.46V261.538Z" fill="black"/>
<path d="M1270.77 261.538H1278.46V269.231H1270.77V261.538Z" fill="black"/>
<path d="M1247.69 284.615H1255.38V292.308H1247.69V284.615Z" fill="black"/>
<path d="M1255.38 276.923H1263.08V284.615H1255.38V276.923Z" fill="black"/>
<path d="M1263.08 269.231H1270.77V276.923H1263.08V269.231Z" fill="black"/>
<path d="M1278.46 261.538H1286.15V253.846H1278.46V261.538Z" fill="black"/>
<path d="M1427.85 207.692H1435.54V246.154H1427.85V207.692Z" fill="black"/>
<path d="M1435.54 215.385H1443.23V223.077H1435.54V215.385Z" fill="black"/>
<path d="M1427.85 253.846H1435.54V284.615H1427.85V253.846Z" fill="black"/>
<path d="M1435.54 284.615H1443.23V292.308H1435.54V284.615Z" fill="black"/>
<path d="M1381.69 207.692H1389.38V246.154H1381.69V207.692Z" fill="black"/>
<path d="M1389.38 207.692H1412.46V215.385H1389.38V207.692Z" fill="black"/>
<path d="M1389.38 223.077H1412.46V230.769H1389.38V223.077Z" fill="black"/>
<path d="M1412.46 215.385H1420.15V223.077H1412.46V215.385Z" fill="black"/>
<path d="M1389.38 238.462H1412.46V246.154H1389.38V238.462Z" fill="black"/>
<path d="M1412.46 230.769H1420.15V238.462H1412.46V230.769Z" fill="black"/>
<path d="M1381.69 253.846H1412.46V261.538H1381.69V253.846Z" fill="black"/>
<path d="M1412.46 261.538H1420.15V292.308H1412.46V261.538Z" fill="black"/>
<path d="M1404.77 261.538H1412.46V269.231H1404.77V261.538Z" fill="black"/>
<path d="M1381.69 284.615H1389.38V292.308H1381.69V284.615Z" fill="black"/>
<path d="M1389.38 276.923H1397.08V284.615H1389.38V276.923Z" fill="black"/>
<path d="M1397.08 269.231H1404.77V276.923H1397.08V269.231Z" fill="black"/>
<path d="M1412.46 261.538H1420.15V253.846H1412.46V261.538Z" fill="black"/>
</g>
<g opacity="0.01">
<path d="M37.8462 307.692H45.5385V346.154H37.8462V307.692Z" fill="black"/>
<path d="M68.6152 307.692H76.3075V346.154H68.6152V307.692Z" fill="black"/>
<path d="M53.231 323.077H60.9233V330.769H53.231V323.077Z" fill="black"/>
<path d="M45.5386 315.385H53.2309V323.077H45.5386V315.385Z" fill="black"/>
<path d="M60.9229 330.769H68.6152V338.462H60.9229V330.769Z" fill="black"/>
<path d="M37.8462 353.846H45.5385V384.615H37.8462V353.846Z" fill="black"/>
<path d="M45.5386 384.615H53.2309V392.308H45.5386V384.615Z" fill="black"/>
<path d="M53.231 376.923H60.9233V384.615H53.231V376.923Z" fill="black"/>
<path d="M60.9229 384.615H68.6152V392.308H60.9229V384.615Z" fill="black"/>
<path d="M68.6152 353.846H76.3075V384.615H68.6152V353.846Z" fill="black"/>
<path d="M-0.615234 307.692H22.4617V315.385H-0.615234V307.692Z" fill="black"/>
<path d="M-0.615234 323.077H22.4617V330.769H-0.615234V323.077Z" fill="black"/>
<path d="M22.4614 315.385H30.1537V323.077H22.4614V315.385Z" fill="black"/>
<path d="M-0.615234 338.462H22.4617V346.154H-0.615234V338.462Z" fill="black"/>
<path d="M22.4614 330.769H30.1537V338.462H22.4614V330.769Z" fill="black"/>
<path d="M-8.30762 353.846H22.4616V361.538H-8.30762V353.846Z" fill="black"/>
<path d="M22.4614 361.538H30.1537V392.308H22.4614V361.538Z" fill="black"/>
<path d="M14.769 361.538H22.4614V369.231H14.769V361.538Z" fill="black"/>
<path d="M-0.615234 376.923H7.07707V384.615H-0.615234V376.923Z" fill="black"/>
<path d="M7.07715 369.231H14.7695V376.923H7.07715V369.231Z" fill="black"/>
<path d="M22.4614 361.538H30.1537V353.846H22.4614V361.538Z" fill="black"/>
<path d="M171.846 307.692H179.538V346.154H171.846V307.692Z" fill="black"/>
<path d="M202.615 307.692H210.308V346.154H202.615V307.692Z" fill="black"/>
<path d="M187.231 323.077H194.923V330.769H187.231V323.077Z" fill="black"/>
<path d="M179.539 315.385H187.231V323.077H179.539V315.385Z" fill="black"/>
<path d="M194.923 330.769H202.615V338.462H194.923V330.769Z" fill="black"/>
<path d="M171.846 353.846H179.538V384.615H171.846V353.846Z" fill="black"/>
<path d="M179.539 384.615H187.231V392.308H179.539V384.615Z" fill="black"/>
<path d="M187.231 376.923H194.923V384.615H187.231V376.923Z" fill="black"/>
<path d="M194.923 384.615H202.615V392.308H194.923V384.615Z" fill="black"/>
<path d="M202.615 353.846H210.308V384.615H202.615V353.846Z" fill="black"/>
<path d="M125.692 307.692H133.385V346.154H125.692V307.692Z" fill="black"/>
<path d="M133.385 307.692H156.462V315.385H133.385V307.692Z" fill="black"/>
<path d="M133.385 323.077H156.462V330.769H133.385V323.077Z" fill="black"/>
<path d="M156.461 315.385H164.154V323.077H156.461V315.385Z" fill="black"/>
<path d="M133.385 338.462H156.462V346.154H133.385V338.462Z" fill="black"/>
<path d="M156.461 330.769H164.154V338.462H156.461V330.769Z" fill="black"/>
<path d="M125.692 353.846H156.462V361.538H125.692V353.846Z" fill="black"/>
<path d="M156.461 361.538H164.154V392.308H156.461V361.538Z" fill="black"/>
<path d="M148.769 361.538H156.461V369.231H148.769V361.538Z" fill="black"/>
<path d="M125.692 384.615H133.385V392.308H125.692V384.615Z" fill="black"/>
<path d="M133.385 376.923H141.077V384.615H133.385V376.923Z" fill="black"/>
<path d="M141.077 369.231H148.769V376.923H141.077V369.231Z" fill="black"/>
<path d="M156.461 361.538H164.154V353.846H156.461V361.538Z" fill="black"/>
<path d="M305.846 307.692H313.538V346.154H305.846V307.692Z" fill="black"/>
<path d="M336.615 307.692H344.308V346.154H336.615V307.692Z" fill="black"/>
<path d="M321.231 323.077H328.923V330.769H321.231V323.077Z" fill="black"/>
<path d="M313.539 315.385H321.231V323.077H313.539V315.385Z" fill="black"/>
<path d="M328.923 330.769H336.615V338.462H328.923V330.769Z" fill="black"/>
<path d="M305.846 353.846H313.538V384.615H305.846V353.846Z" fill="black"/>
<path d="M313.539 384.615H321.231V392.308H313.539V384.615Z" fill="black"/>
<path d="M321.231 376.923H328.923V384.615H321.231V376.923Z" fill="black"/>
<path d="M328.923 384.615H336.615V392.308H328.923V384.615Z" fill="black"/>
<path d="M336.615 353.846H344.308V384.615H336.615V353.846Z" fill="black"/>
<path d="M259.692 307.692H267.385V346.154H259.692V307.692Z" fill="black"/>
<path d="M267.385 307.692H290.462V315.385H267.385V307.692Z" fill="black"/>
<path d="M267.385 323.077H290.462V330.769H267.385V323.077Z" fill="black"/>
<path d="M290.461 315.385H298.154V323.077H290.461V315.385Z" fill="black"/>
<path d="M267.385 338.462H290.462V346.154H267.385V338.462Z" fill="black"/>
<path d="M290.461 330.769H298.154V338.462H290.461V330.769Z" fill="black"/>
<path d="M259.692 353.846H290.462V361.538H259.692V353.846Z" fill="black"/>
<path d="M290.461 361.538H298.154V392.308H290.461V361.538Z" fill="black"/>
<path d="M282.769 361.538H290.461V369.231H282.769V361.538Z" fill="black"/>
<path d="M259.692 384.615H267.385V392.308H259.692V384.615Z" fill="black"/>
<path d="M267.385 376.923H275.077V384.615H267.385V376.923Z" fill="black"/>
<path d="M275.077 369.231H282.769V376.923H275.077V369.231Z" fill="black"/>
<path d="M290.461 361.538H298.154V353.846H290.461V361.538Z" fill="black"/>
<path d="M439.846 307.692H447.538V346.154H439.846V307.692Z" fill="black"/>
<path d="M470.615 307.692H478.308V346.154H470.615V307.692Z" fill="black"/>
<path d="M455.231 323.077H462.923V330.769H455.231V323.077Z" fill="black"/>
<path d="M447.539 315.385H455.231V323.077H447.539V315.385Z" fill="black"/>
<path d="M462.923 330.769H470.615V338.462H462.923V330.769Z" fill="black"/>
<path d="M439.846 353.846H447.538V384.615H439.846V353.846Z" fill="black"/>
<path d="M447.539 384.615H455.231V392.308H447.539V384.615Z" fill="black"/>
<path d="M455.231 376.923H462.923V384.615H455.231V376.923Z" fill="black"/>
<path d="M462.923 384.615H470.615V392.308H462.923V384.615Z" fill="black"/>
<path d="M470.615 353.846H478.308V384.615H470.615V353.846Z" fill="black"/>
<path d="M393.692 307.692H401.385V346.154H393.692V307.692Z" fill="black"/>
<path d="M401.385 307.692H424.462V315.385H401.385V307.692Z" fill="black"/>
<path d="M401.385 323.077H424.462V330.769H401.385V323.077Z" fill="black"/>
<path d="M424.461 315.385H432.154V323.077H424.461V315.385Z" fill="black"/>
<path d="M401.385 338.462H424.462V346.154H401.385V338.462Z" fill="black"/>
<path d="M424.461 330.769H432.154V338.462H424.461V330.769Z" fill="black"/>
<path d="M393.692 353.846H424.462V361.538H393.692V353.846Z" fill="black"/>
<path d="M424.461 361.538H432.154V392.308H424.461V361.538Z" fill="black"/>
<path d="M416.769 361.538H424.461V369.231H416.769V361.538Z" fill="black"/>
<path d="M393.692 384.615H401.385V392.308H393.692V384.615Z" fill="black"/>
<path d="M401.385 376.923H409.077V384.615H401.385V376.923Z" fill="black"/>
<path d="M409.077 369.231H416.769V376.923H409.077V369.231Z" fill="black"/>
<path d="M424.461 361.538H432.154V353.846H424.461V361.538Z" fill="black"/>
<path d="M573.846 307.692H581.538V346.154H573.846V307.692Z" fill="black"/>
<path d="M604.615 307.692H612.308V346.154H604.615V307.692Z" fill="black"/>
<path d="M589.231 323.077H596.923V330.769H589.231V323.077Z" fill="black"/>
<path d="M581.539 315.385H589.231V323.077H581.539V315.385Z" fill="black"/>
<path d="M596.923 330.769H604.615V338.462H596.923V330.769Z" fill="black"/>
<path d="M573.846 353.846H581.538V384.615H573.846V353.846Z" fill="black"/>
<path d="M581.539 384.615H589.231V392.308H581.539V384.615Z" fill="black"/>
<path d="M589.231 376.923H596.923V384.615H589.231V376.923Z" fill="black"/>
<path d="M596.923 384.615H604.615V392.308H596.923V384.615Z" fill="black"/>
<path d="M604.615 353.846H612.308V384.615H604.615V353.846Z" fill="black"/>
<path d="M527.692 307.692H535.385V346.154H527.692V307.692Z" fill="black"/>
<path d="M535.385 307.692H558.462V315.385H535.385V307.692Z" fill="black"/>
<path d="M535.385 323.077H558.462V330.769H535.385V323.077Z" fill="black"/>
<path d="M558.461 315.385H566.154V323.077H558.461V315.385Z" fill="black"/>
<path d="M535.385 338.462H558.462V346.154H535.385V338.462Z" fill="black"/>
<path d="M558.461 330.769H566.154V338.462H558.461V330.769Z" fill="black"/>
<path d="M527.692 353.846H558.462V361.538H527.692V353.846Z" fill="black"/>
<path d="M558.461 361.538H566.154V392.308H558.461V361.538Z" fill="black"/>
<path d="M550.769 361.538H558.461V369.231H550.769V361.538Z" fill="black"/>
<path d="M527.692 384.615H535.385V392.308H527.692V384.615Z" fill="black"/>
<path d="M535.385 376.923H543.077V384.615H535.385V376.923Z" fill="black"/>
<path d="M543.077 369.231H550.769V376.923H543.077V369.231Z" fill="black"/>
<path d="M558.461 361.538H566.154V353.846H558.461V361.538Z" fill="black"/>
<path d="M707.846 307.692H715.538V346.154H707.846V307.692Z" fill="black"/>
<path d="M738.615 307.692H746.308V346.154H738.615V307.692Z" fill="black"/>
<path d="M723.231 323.077H730.923V330.769H723.231V323.077Z" fill="black"/>
<path d="M715.539 315.385H723.231V323.077H715.539V315.385Z" fill="black"/>
<path d="M730.923 330.769H738.615V338.462H730.923V330.769Z" fill="black"/>
<path d="M707.846 353.846H715.538V384.615H707.846V353.846Z" fill="black"/>
<path d="M715.539 384.615H723.231V392.308H715.539V384.615Z" fill="black"/>
<path d="M723.231 376.923H730.923V384.615H723.231V376.923Z" fill="black"/>
<path d="M730.923 384.615H738.615V392.308H730.923V384.615Z" fill="black"/>
<path d="M738.615 353.846H746.308V384.615H738.615V353.846Z" fill="black"/>
<path d="M661.692 307.692H669.385V346.154H661.692V307.692Z" fill="black"/>
<path d="M669.385 307.692H692.462V315.385H669.385V307.692Z" fill="black"/>
<path d="M669.385 323.077H692.462V330.769H669.385V323.077Z" fill="black"/>
<path d="M692.461 315.385H700.154V323.077H692.461V315.385Z" fill="black"/>
<path d="M669.385 338.462H692.462V346.154H669.385V338.462Z" fill="black"/>
<path d="M692.461 330.769H700.154V338.462H692.461V330.769Z" fill="black"/>
<path d="M661.692 353.846H692.462V361.538H661.692V353.846Z" fill="black"/>
<path d="M692.461 361.538H700.154V392.308H692.461V361.538Z" fill="black"/>
<path d="M684.769 361.538H692.461V369.231H684.769V361.538Z" fill="black"/>
<path d="M661.692 384.615H669.385V392.308H661.692V384.615Z" fill="black"/>
<path d="M669.385 376.923H677.077V384.615H669.385V376.923Z" fill="black"/>
<path d="M677.077 369.231H684.769V376.923H677.077V369.231Z" fill="black"/>
<path d="M692.461 361.538H700.154V353.846H692.461V361.538Z" fill="black"/>
<path d="M841.846 307.692H849.538V346.154H841.846V307.692Z" fill="black"/>
<path d="M872.615 307.692H880.308V346.154H872.615V307.692Z" fill="black"/>
<path d="M857.231 323.077H864.923V330.769H857.231V323.077Z" fill="black"/>
<path d="M849.539 315.385H857.231V323.077H849.539V315.385Z" fill="black"/>
<path d="M864.923 330.769H872.615V338.462H864.923V330.769Z" fill="black"/>
<path d="M841.846 353.846H849.538V384.615H841.846V353.846Z" fill="black"/>
<path d="M849.539 384.615H857.231V392.308H849.539V384.615Z" fill="black"/>
<path d="M857.231 376.923H864.923V384.615H857.231V376.923Z" fill="black"/>
<path d="M864.923 384.615H872.615V392.308H864.923V384.615Z" fill="black"/>
<path d="M872.615 353.846H880.308V384.615H872.615V353.846Z" fill="black"/>
<path d="M795.692 307.692H803.385V346.154H795.692V307.692Z" fill="black"/>
<path d="M803.385 307.692H826.462V315.385H803.385V307.692Z" fill="black"/>
<path d="M803.385 323.077H826.462V330.769H803.385V323.077Z" fill="black"/>
<path d="M826.461 315.385H834.154V323.077H826.461V315.385Z" fill="black"/>
<path d="M803.385 338.462H826.462V346.154H803.385V338.462Z" fill="black"/>
<path d="M826.461 330.769H834.154V338.462H826.461V330.769Z" fill="black"/>
<path d="M795.692 353.846H826.462V361.538H795.692V353.846Z" fill="black"/>
<path d="M826.461 361.538H834.154V392.308H826.461V361.538Z" fill="black"/>
<path d="M818.769 361.538H826.461V369.231H818.769V361.538Z" fill="black"/>
<path d="M795.692 384.615H803.385V392.308H795.692V384.615Z" fill="black"/>
<path d="M803.385 376.923H811.077V384.615H803.385V376.923Z" fill="black"/>
<path d="M811.077 369.231H818.769V376.923H811.077V369.231Z" fill="black"/>
<path d="M826.461 361.538H834.154V353.846H826.461V361.538Z" fill="black"/>
<path d="M975.846 307.692H983.538V346.154H975.846V307.692Z" fill="black"/>
<path d="M1006.62 307.692H1014.31V346.154H1006.62V307.692Z" fill="black"/>
<path d="M991.231 323.077H998.923V330.769H991.231V323.077Z" fill="black"/>
<path d="M983.539 315.385H991.231V323.077H983.539V315.385Z" fill="black"/>
<path d="M998.923 330.769H1006.62V338.462H998.923V330.769Z" fill="black"/>
<path d="M975.846 353.846H983.538V384.615H975.846V353.846Z" fill="black"/>
<path d="M983.539 384.615H991.231V392.308H983.539V384.615Z" fill="black"/>
<path d="M991.231 376.923H998.923V384.615H991.231V376.923Z" fill="black"/>
<path d="M998.923 384.615H1006.62V392.308H998.923V384.615Z" fill="black"/>
<path d="M1006.62 353.846H1014.31V384.615H1006.62V353.846Z" fill="black"/>
<path d="M929.692 307.692H937.385V346.154H929.692V307.692Z" fill="black"/>
<path d="M937.385 307.692H960.462V315.385H937.385V307.692Z" fill="black"/>
<path d="M937.385 323.077H960.462V330.769H937.385V323.077Z" fill="black"/>
<path d="M960.461 315.385H968.154V323.077H960.461V315.385Z" fill="black"/>
<path d="M937.385 338.462H960.462V346.154H937.385V338.462Z" fill="black"/>
<path d="M960.461 330.769H968.154V338.462H960.461V330.769Z" fill="black"/>
<path d="M929.692 353.846H960.462V361.538H929.692V353.846Z" fill="black"/>
<path d="M960.461 361.538H968.154V392.308H960.461V361.538Z" fill="black"/>
<path d="M952.769 361.538H960.461V369.231H952.769V361.538Z" fill="black"/>
<path d="M929.692 384.615H937.385V392.308H929.692V384.615Z" fill="black"/>
<path d="M937.385 376.923H945.077V384.615H937.385V376.923Z" fill="black"/>
<path d="M945.077 369.231H952.769V376.923H945.077V369.231Z" fill="black"/>
<path d="M960.461 361.538H968.154V353.846H960.461V361.538Z" fill="black"/>
<path d="M1109.85 307.692H1117.54V346.154H1109.85V307.692Z" fill="black"/>
<path d="M1140.62 307.692H1148.31V346.154H1140.62V307.692Z" fill="black"/>
<path d="M1125.23 323.077H1132.92V330.769H1125.23V323.077Z" fill="black"/>
<path d="M1117.54 315.385H1125.23V323.077H1117.54V315.385Z" fill="black"/>
<path d="M1132.92 330.769H1140.62V338.462H1132.92V330.769Z" fill="black"/>
<path d="M1109.85 353.846H1117.54V384.615H1109.85V353.846Z" fill="black"/>
<path d="M1117.54 384.615H1125.23V392.308H1117.54V384.615Z" fill="black"/>
<path d="M1125.23 376.923H1132.92V384.615H1125.23V376.923Z" fill="black"/>
<path d="M1132.92 384.615H1140.62V392.308H1132.92V384.615Z" fill="black"/>
<path d="M1140.62 353.846H1148.31V384.615H1140.62V353.846Z" fill="black"/>
<path d="M1063.69 307.692H1071.38V346.154H1063.69V307.692Z" fill="black"/>
<path d="M1071.38 307.692H1094.46V315.385H1071.38V307.692Z" fill="black"/>
<path d="M1071.38 323.077H1094.46V330.769H1071.38V323.077Z" fill="black"/>
<path d="M1094.46 315.385H1102.15V323.077H1094.46V315.385Z" fill="black"/>
<path d="M1071.38 338.462H1094.46V346.154H1071.38V338.462Z" fill="black"/>
<path d="M1094.46 330.769H1102.15V338.462H1094.46V330.769Z" fill="black"/>
<path d="M1063.69 353.846H1094.46V361.538H1063.69V353.846Z" fill="black"/>
<path d="M1094.46 361.538H1102.15V392.308H1094.46V361.538Z" fill="black"/>
<path d="M1086.77 361.538H1094.46V369.231H1086.77V361.538Z" fill="black"/>
<path d="M1063.69 384.615H1071.38V392.308H1063.69V384.615Z" fill="black"/>
<path d="M1071.38 376.923H1079.08V384.615H1071.38V376.923Z" fill="black"/>
<path d="M1079.08 369.231H1086.77V376.923H1079.08V369.231Z" fill="black"/>
<path d="M1094.46 361.538H1102.15V353.846H1094.46V361.538Z" fill="black"/>
<path d="M1243.85 307.692H1251.54V346.154H1243.85V307.692Z" fill="black"/>
<path d="M1274.62 307.692H1282.31V346.154H1274.62V307.692Z" fill="black"/>
<path d="M1259.23 323.077H1266.92V330.769H1259.23V323.077Z" fill="black"/>
<path d="M1251.54 315.385H1259.23V323.077H1251.54V315.385Z" fill="black"/>
<path d="M1266.92 330.769H1274.62V338.462H1266.92V330.769Z" fill="black"/>
<path d="M1243.85 353.846H1251.54V384.615H1243.85V353.846Z" fill="black"/>
<path d="M1251.54 384.615H1259.23V392.308H1251.54V384.615Z" fill="black"/>
<path d="M1259.23 376.923H1266.92V384.615H1259.23V376.923Z" fill="black"/>
<path d="M1266.92 384.615H1274.62V392.308H1266.92V384.615Z" fill="black"/>
<path d="M1274.62 353.846H1282.31V384.615H1274.62V353.846Z" fill="black"/>
<path d="M1197.69 307.692H1205.38V346.154H1197.69V307.692Z" fill="black"/>
<path d="M1205.38 307.692H1228.46V315.385H1205.38V307.692Z" fill="black"/>
<path d="M1205.38 323.077H1228.46V330.769H1205.38V323.077Z" fill="black"/>
<path d="M1228.46 315.385H1236.15V323.077H1228.46V315.385Z" fill="black"/>
<path d="M1205.38 338.462H1228.46V346.154H1205.38V338.462Z" fill="black"/>
<path d="M1228.46 330.769H1236.15V338.462H1228.46V330.769Z" fill="black"/>
<path d="M1197.69 353.846H1228.46V361.538H1197.69V353.846Z" fill="black"/>
<path d="M1228.46 361.538H1236.15V392.308H1228.46V361.538Z" fill="black"/>
<path d="M1220.77 361.538H1228.46V369.231H1220.77V361.538Z" fill="black"/>
<path d="M1197.69 384.615H1205.38V392.308H1197.69V384.615Z" fill="black"/>
<path d="M1205.38 376.923H1213.08V384.615H1205.38V376.923Z" fill="black"/>
<path d="M1213.08 369.231H1220.77V376.923H1213.08V369.231Z" fill="black"/>
<path d="M1228.46 361.538H1236.15V353.846H1228.46V361.538Z" fill="black"/>
<path d="M1377.85 307.692H1385.54V346.154H1377.85V307.692Z" fill="black"/>
<path d="M1408.62 307.692H1416.31V346.154H1408.62V307.692Z" fill="black"/>
<path d="M1393.23 323.077H1400.92V330.769H1393.23V323.077Z" fill="black"/>
<path d="M1385.54 315.385H1393.23V323.077H1385.54V315.385Z" fill="black"/>
<path d="M1400.92 330.769H1408.62V338.462H1400.92V330.769Z" fill="black"/>
<path d="M1377.85 353.846H1385.54V384.615H1377.85V353.846Z" fill="black"/>
<path d="M1385.54 384.615H1393.23V392.308H1385.54V384.615Z" fill="black"/>
<path d="M1393.23 376.923H1400.92V384.615H1393.23V376.923Z" fill="black"/>
<path d="M1400.92 384.615H1408.62V392.308H1400.92V384.615Z" fill="black"/>
<path d="M1408.62 353.846H1416.31V384.615H1408.62V353.846Z" fill="black"/>
<path d="M1331.69 307.692H1339.38V346.154H1331.69V307.692Z" fill="black"/>
<path d="M1339.38 307.692H1362.46V315.385H1339.38V307.692Z" fill="black"/>
<path d="M1339.38 323.077H1362.46V330.769H1339.38V323.077Z" fill="black"/>
<path d="M1362.46 315.385H1370.15V323.077H1362.46V315.385Z" fill="black"/>
<path d="M1339.38 338.462H1362.46V346.154H1339.38V338.462Z" fill="black"/>
<path d="M1362.46 330.769H1370.15V338.462H1362.46V330.769Z" fill="black"/>
<path d="M1331.69 353.846H1362.46V361.538H1331.69V353.846Z" fill="black"/>
<path d="M1362.46 361.538H1370.15V392.308H1362.46V361.538Z" fill="black"/>
<path d="M1354.77 361.538H1362.46V369.231H1354.77V361.538Z" fill="black"/>
<path d="M1331.69 384.615H1339.38V392.308H1331.69V384.615Z" fill="black"/>
<path d="M1339.38 376.923H1347.08V384.615H1339.38V376.923Z" fill="black"/>
<path d="M1347.08 369.231H1354.77V376.923H1347.08V369.231Z" fill="black"/>
<path d="M1362.46 361.538H1370.15V353.846H1362.46V361.538Z" fill="black"/>
</g>
<g opacity="0.01">
<path d="M18.6152 407.692H26.3075V446.154H18.6152V407.692Z" fill="black"/>
<path d="M3.23096 423.077H10.9233V430.769H3.23096V423.077Z" fill="black"/>
<path d="M-4.46143 415.385H3.23088V423.077H-4.46143V415.385Z" fill="black"/>
<path d="M10.9229 430.769H18.6152V438.462H10.9229V430.769Z" fill="black"/>
<path d="M-4.46143 484.615H3.23088V492.308H-4.46143V484.615Z" fill="black"/>
<path d="M3.23096 476.923H10.9233V484.615H3.23096V476.923Z" fill="black"/>
<path d="M10.9229 484.615H18.6152V492.308H10.9229V484.615Z" fill="black"/>
<path d="M18.6152 453.846H26.3075V484.615H18.6152V453.846Z" fill="black"/>
<path d="M121.846 407.692H129.538V446.154H121.846V407.692Z" fill="black"/>
<path d="M152.615 407.692H160.308V446.154H152.615V407.692Z" fill="black"/>
<path d="M137.231 423.077H144.923V430.769H137.231V423.077Z" fill="black"/>
<path d="M129.539 415.385H137.231V423.077H129.539V415.385Z" fill="black"/>
<path d="M144.923 430.769H152.615V438.462H144.923V430.769Z" fill="black"/>
<path d="M121.846 453.846H129.538V484.615H121.846V453.846Z" fill="black"/>
<path d="M129.539 484.615H137.231V492.308H129.539V484.615Z" fill="black"/>
<path d="M137.231 476.923H144.923V484.615H137.231V476.923Z" fill="black"/>
<path d="M144.923 484.615H152.615V492.308H144.923V484.615Z" fill="black"/>
<path d="M152.615 453.846H160.308V484.615H152.615V453.846Z" fill="black"/>
<path d="M75.6924 407.692H83.3847V446.154H75.6924V407.692Z" fill="black"/>
<path d="M83.3848 407.692H106.462V415.385H83.3848V407.692Z" fill="black"/>
<path d="M83.3848 423.077H106.462V430.769H83.3848V423.077Z" fill="black"/>
<path d="M106.461 415.385H114.154V423.077H106.461V415.385Z" fill="black"/>
<path d="M83.3848 438.462H106.462V446.154H83.3848V438.462Z" fill="black"/>
<path d="M106.461 430.769H114.154V438.462H106.461V430.769Z" fill="black"/>
<path d="M75.6924 453.846H106.462V461.538H75.6924V453.846Z" fill="black"/>
<path d="M106.461 461.538H114.154V492.308H106.461V461.538Z" fill="black"/>
<path d="M98.769 461.538H106.461V469.231H98.769V461.538Z" fill="black"/>
<path d="M75.6924 484.615H83.3847V492.308H75.6924V484.615Z" fill="black"/>
<path d="M83.3848 476.923H91.0771V484.615H83.3848V476.923Z" fill="black"/>
<path d="M91.0771 469.231H98.7695V476.923H91.0771V469.231Z" fill="black"/>
<path d="M106.461 461.538H114.154V453.846H106.461V461.538Z" fill="black"/>
<path d="M255.846 407.692H263.538V446.154H255.846V407.692Z" fill="black"/>
<path d="M286.615 407.692H294.308V446.154H286.615V407.692Z" fill="black"/>
<path d="M271.231 423.077H278.923V430.769H271.231V423.077Z" fill="black"/>
<path d="M263.539 415.385H271.231V423.077H263.539V415.385Z" fill="black"/>
<path d="M278.923 430.769H286.615V438.462H278.923V430.769Z" fill="black"/>
<path d="M255.846 453.846H263.538V484.615H255.846V453.846Z" fill="black"/>
<path d="M263.539 484.615H271.231V492.308H263.539V484.615Z" fill="black"/>
<path d="M271.231 476.923H278.923V484.615H271.231V476.923Z" fill="black"/>
<path d="M278.923 484.615H286.615V492.308H278.923V484.615Z" fill="black"/>
<path d="M286.615 453.846H294.308V484.615H286.615V453.846Z" fill="black"/>
<path d="M209.692 407.692H217.385V446.154H209.692V407.692Z" fill="black"/>
<path d="M217.385 407.692H240.462V415.385H217.385V407.692Z" fill="black"/>
<path d="M217.385 423.077H240.462V430.769H217.385V423.077Z" fill="black"/>
<path d="M240.461 415.385H248.154V423.077H240.461V415.385Z" fill="black"/>
<path d="M217.385 438.462H240.462V446.154H217.385V438.462Z" fill="black"/>
<path d="M240.461 430.769H248.154V438.462H240.461V430.769Z" fill="black"/>
<path d="M209.692 453.846H240.462V461.538H209.692V453.846Z" fill="black"/>
<path d="M240.461 461.538H248.154V492.308H240.461V461.538Z" fill="black"/>
<path d="M232.769 461.538H240.461V469.231H232.769V461.538Z" fill="black"/>
<path d="M209.692 484.615H217.385V492.308H209.692V484.615Z" fill="black"/>
<path d="M217.385 476.923H225.077V484.615H217.385V476.923Z" fill="black"/>
<path d="M225.077 469.231H232.769V476.923H225.077V469.231Z" fill="black"/>
<path d="M240.461 461.538H248.154V453.846H240.461V461.538Z" fill="black"/>
<path d="M389.846 407.692H397.538V446.154H389.846V407.692Z" fill="black"/>
<path d="M420.615 407.692H428.308V446.154H420.615V407.692Z" fill="black"/>
<path d="M405.231 423.077H412.923V430.769H405.231V423.077Z" fill="black"/>
<path d="M397.539 415.385H405.231V423.077H397.539V415.385Z" fill="black"/>
<path d="M412.923 430.769H420.615V438.462H412.923V430.769Z" fill="black"/>
<path d="M389.846 453.846H397.538V484.615H389.846V453.846Z" fill="black"/>
<path d="M397.539 484.615H405.231V492.308H397.539V484.615Z" fill="black"/>
<path d="M405.231 476.923H412.923V484.615H405.231V476.923Z" fill="black"/>
<path d="M412.923 484.615H420.615V492.308H412.923V484.615Z" fill="black"/>
<path d="M420.615 453.846H428.308V484.615H420.615V453.846Z" fill="black"/>
<path d="M343.692 407.692H351.385V446.154H343.692V407.692Z" fill="black"/>
<path d="M351.385 407.692H374.462V415.385H351.385V407.692Z" fill="black"/>
<path d="M351.385 423.077H374.462V430.769H351.385V423.077Z" fill="black"/>
<path d="M374.461 415.385H382.154V423.077H374.461V415.385Z" fill="black"/>
<path d="M351.385 438.462H374.462V446.154H351.385V438.462Z" fill="black"/>
<path d="M374.461 430.769H382.154V438.462H374.461V430.769Z" fill="black"/>
<path d="M343.692 453.846H374.462V461.538H343.692V453.846Z" fill="black"/>
<path d="M374.461 461.538H382.154V492.308H374.461V461.538Z" fill="black"/>
<path d="M366.769 461.538H374.461V469.231H366.769V461.538Z" fill="black"/>
<path d="M343.692 484.615H351.385V492.308H343.692V484.615Z" fill="black"/>
<path d="M351.385 476.923H359.077V484.615H351.385V476.923Z" fill="black"/>
<path d="M359.077 469.231H366.769V476.923H359.077V469.231Z" fill="black"/>
<path d="M374.461 461.538H382.154V453.846H374.461V461.538Z" fill="black"/>
<path d="M523.846 407.692H531.538V446.154H523.846V407.692Z" fill="black"/>
<path d="M554.615 407.692H562.308V446.154H554.615V407.692Z" fill="black"/>
<path d="M539.231 423.077H546.923V430.769H539.231V423.077Z" fill="black"/>
<path d="M531.539 415.385H539.231V423.077H531.539V415.385Z" fill="black"/>
<path d="M546.923 430.769H554.615V438.462H546.923V430.769Z" fill="black"/>
<path d="M523.846 453.846H531.538V484.615H523.846V453.846Z" fill="black"/>
<path d="M531.539 484.615H539.231V492.308H531.539V484.615Z" fill="black"/>
<path d="M539.231 476.923H546.923V484.615H539.231V476.923Z" fill="black"/>
<path d="M546.923 484.615H554.615V492.308H546.923V484.615Z" fill="black"/>
<path d="M554.615 453.846H562.308V484.615H554.615V453.846Z" fill="black"/>
<path d="M477.692 407.692H485.385V446.154H477.692V407.692Z" fill="black"/>
<path d="M485.385 407.692H508.462V415.385H485.385V407.692Z" fill="black"/>
<path d="M485.385 423.077H508.462V430.769H485.385V423.077Z" fill="black"/>
<path d="M508.461 415.385H516.154V423.077H508.461V415.385Z" fill="black"/>
<path d="M485.385 438.462H508.462V446.154H485.385V438.462Z" fill="black"/>
<path d="M508.461 430.769H516.154V438.462H508.461V430.769Z" fill="black"/>
<path d="M477.692 453.846H508.462V461.538H477.692V453.846Z" fill="black"/>
<path d="M508.461 461.538H516.154V492.308H508.461V461.538Z" fill="black"/>
<path d="M500.769 461.538H508.461V469.231H500.769V461.538Z" fill="black"/>
<path d="M477.692 484.615H485.385V492.308H477.692V484.615Z" fill="black"/>
<path d="M485.385 476.923H493.077V484.615H485.385V476.923Z" fill="black"/>
<path d="M493.077 469.231H500.769V476.923H493.077V469.231Z" fill="black"/>
<path d="M508.461 461.538H516.154V453.846H508.461V461.538Z" fill="black"/>
<path d="M657.846 407.692H665.538V446.154H657.846V407.692Z" fill="black"/>
<path d="M688.615 407.692H696.308V446.154H688.615V407.692Z" fill="black"/>
<path d="M673.231 423.077H680.923V430.769H673.231V423.077Z" fill="black"/>
<path d="M665.539 415.385H673.231V423.077H665.539V415.385Z" fill="black"/>
<path d="M680.923 430.769H688.615V438.462H680.923V430.769Z" fill="black"/>
<path d="M657.846 453.846H665.538V484.615H657.846V453.846Z" fill="black"/>
<path d="M665.539 484.615H673.231V492.308H665.539V484.615Z" fill="black"/>
<path d="M673.231 476.923H680.923V484.615H673.231V476.923Z" fill="black"/>
<path d="M680.923 484.615H688.615V492.308H680.923V484.615Z" fill="black"/>
<path d="M688.615 453.846H696.308V484.615H688.615V453.846Z" fill="black"/>
<path d="M611.692 407.692H619.385V446.154H611.692V407.692Z" fill="black"/>
<path d="M619.385 407.692H642.462V415.385H619.385V407.692Z" fill="black"/>
<path d="M619.385 423.077H642.462V430.769H619.385V423.077Z" fill="black"/>
<path d="M642.461 415.385H650.154V423.077H642.461V415.385Z" fill="black"/>
<path d="M619.385 438.462H642.462V446.154H619.385V438.462Z" fill="black"/>
<path d="M642.461 430.769H650.154V438.462H642.461V430.769Z" fill="black"/>
<path d="M611.692 453.846H642.462V461.538H611.692V453.846Z" fill="black"/>
<path d="M642.461 461.538H650.154V492.308H642.461V461.538Z" fill="black"/>
<path d="M634.769 461.538H642.461V469.231H634.769V461.538Z" fill="black"/>
<path d="M611.692 484.615H619.385V492.308H611.692V484.615Z" fill="black"/>
<path d="M619.385 476.923H627.077V484.615H619.385V476.923Z" fill="black"/>
<path d="M627.077 469.231H634.769V476.923H627.077V469.231Z" fill="black"/>
<path d="M642.461 461.538H650.154V453.846H642.461V461.538Z" fill="black"/>
<path d="M791.846 407.692H799.538V446.154H791.846V407.692Z" fill="black"/>
<path d="M822.615 407.692H830.308V446.154H822.615V407.692Z" fill="black"/>
<path d="M807.231 423.077H814.923V430.769H807.231V423.077Z" fill="black"/>
<path d="M799.539 415.385H807.231V423.077H799.539V415.385Z" fill="black"/>
<path d="M814.923 430.769H822.615V438.462H814.923V430.769Z" fill="black"/>
<path d="M791.846 453.846H799.538V484.615H791.846V453.846Z" fill="black"/>
<path d="M799.539 484.615H807.231V492.308H799.539V484.615Z" fill="black"/>
<path d="M807.231 476.923H814.923V484.615H807.231V476.923Z" fill="black"/>
<path d="M814.923 484.615H822.615V492.308H814.923V484.615Z" fill="black"/>
<path d="M822.615 453.846H830.308V484.615H822.615V453.846Z" fill="black"/>
<path d="M745.692 407.692H753.385V446.154H745.692V407.692Z" fill="black"/>
<path d="M753.385 407.692H776.462V415.385H753.385V407.692Z" fill="black"/>
<path d="M753.385 423.077H776.462V430.769H753.385V423.077Z" fill="black"/>
<path d="M776.461 415.385H784.154V423.077H776.461V415.385Z" fill="black"/>
<path d="M753.385 438.462H776.462V446.154H753.385V438.462Z" fill="black"/>
<path d="M776.461 430.769H784.154V438.462H776.461V430.769Z" fill="black"/>
<path d="M745.692 453.846H776.462V461.538H745.692V453.846Z" fill="black"/>
<path d="M776.461 461.538H784.154V492.308H776.461V461.538Z" fill="black"/>
<path d="M768.769 461.538H776.461V469.231H768.769V461.538Z" fill="black"/>
<path d="M745.692 484.615H753.385V492.308H745.692V484.615Z" fill="black"/>
<path d="M753.385 476.923H761.077V484.615H753.385V476.923Z" fill="black"/>
<path d="M761.077 469.231H768.769V476.923H761.077V469.231Z" fill="black"/>
<path d="M776.461 461.538H784.154V453.846H776.461V461.538Z" fill="black"/>
<path d="M925.846 407.692H933.538V446.154H925.846V407.692Z" fill="black"/>
<path d="M956.615 407.692H964.308V446.154H956.615V407.692Z" fill="black"/>
<path d="M941.231 423.077H948.923V430.769H941.231V423.077Z" fill="black"/>
<path d="M933.539 415.385H941.231V423.077H933.539V415.385Z" fill="black"/>
<path d="M948.923 430.769H956.615V438.462H948.923V430.769Z" fill="black"/>
<path d="M925.846 453.846H933.538V484.615H925.846V453.846Z" fill="black"/>
<path d="M933.539 484.615H941.231V492.308H933.539V484.615Z" fill="black"/>
<path d="M941.231 476.923H948.923V484.615H941.231V476.923Z" fill="black"/>
<path d="M948.923 484.615H956.615V492.308H948.923V484.615Z" fill="black"/>
<path d="M956.615 453.846H964.308V484.615H956.615V453.846Z" fill="black"/>
<path d="M879.692 407.692H887.385V446.154H879.692V407.692Z" fill="black"/>
<path d="M887.385 407.692H910.462V415.385H887.385V407.692Z" fill="black"/>
<path d="M887.385 423.077H910.462V430.769H887.385V423.077Z" fill="black"/>
<path d="M910.461 415.385H918.154V423.077H910.461V415.385Z" fill="black"/>
<path d="M887.385 438.462H910.462V446.154H887.385V438.462Z" fill="black"/>
<path d="M910.461 430.769H918.154V438.462H910.461V430.769Z" fill="black"/>
<path d="M879.692 453.846H910.462V461.538H879.692V453.846Z" fill="black"/>
<path d="M910.461 461.538H918.154V492.308H910.461V461.538Z" fill="black"/>
<path d="M902.769 461.538H910.461V469.231H902.769V461.538Z" fill="black"/>
<path d="M879.692 484.615H887.385V492.308H879.692V484.615Z" fill="black"/>
<path d="M887.385 476.923H895.077V484.615H887.385V476.923Z" fill="black"/>
<path d="M895.077 469.231H902.769V476.923H895.077V469.231Z" fill="black"/>
<path d="M910.461 461.538H918.154V453.846H910.461V461.538Z" fill="black"/>
<path d="M1059.85 407.692H1067.54V446.154H1059.85V407.692Z" fill="black"/>
<path d="M1090.62 407.692H1098.31V446.154H1090.62V407.692Z" fill="black"/>
<path d="M1075.23 423.077H1082.92V430.769H1075.23V423.077Z" fill="black"/>
<path d="M1067.54 415.385H1075.23V423.077H1067.54V415.385Z" fill="black"/>
<path d="M1082.92 430.769H1090.62V438.462H1082.92V430.769Z" fill="black"/>
<path d="M1059.85 453.846H1067.54V484.615H1059.85V453.846Z" fill="black"/>
<path d="M1067.54 484.615H1075.23V492.308H1067.54V484.615Z" fill="black"/>
<path d="M1075.23 476.923H1082.92V484.615H1075.23V476.923Z" fill="black"/>
<path d="M1082.92 484.615H1090.62V492.308H1082.92V484.615Z" fill="black"/>
<path d="M1090.62 453.846H1098.31V484.615H1090.62V453.846Z" fill="black"/>
<path d="M1013.69 407.692H1021.38V446.154H1013.69V407.692Z" fill="black"/>
<path d="M1021.38 407.692H1044.46V415.385H1021.38V407.692Z" fill="black"/>
<path d="M1021.38 423.077H1044.46V430.769H1021.38V423.077Z" fill="black"/>
<path d="M1044.46 415.385H1052.15V423.077H1044.46V415.385Z" fill="black"/>
<path d="M1021.38 438.462H1044.46V446.154H1021.38V438.462Z" fill="black"/>
<path d="M1044.46 430.769H1052.15V438.462H1044.46V430.769Z" fill="black"/>
<path d="M1013.69 453.846H1044.46V461.538H1013.69V453.846Z" fill="black"/>
<path d="M1044.46 461.538H1052.15V492.308H1044.46V461.538Z" fill="black"/>
<path d="M1036.77 461.538H1044.46V469.231H1036.77V461.538Z" fill="black"/>
<path d="M1013.69 484.615H1021.38V492.308H1013.69V484.615Z" fill="black"/>
<path d="M1021.38 476.923H1029.08V484.615H1021.38V476.923Z" fill="black"/>
<path d="M1029.08 469.231H1036.77V476.923H1029.08V469.231Z" fill="black"/>
<path d="M1044.46 461.538H1052.15V453.846H1044.46V461.538Z" fill="black"/>
<path d="M1193.85 407.692H1201.54V446.154H1193.85V407.692Z" fill="black"/>
<path d="M1224.62 407.692H1232.31V446.154H1224.62V407.692Z" fill="black"/>
<path d="M1209.23 423.077H1216.92V430.769H1209.23V423.077Z" fill="black"/>
<path d="M1201.54 415.385H1209.23V423.077H1201.54V415.385Z" fill="black"/>
<path d="M1216.92 430.769H1224.62V438.462H1216.92V430.769Z" fill="black"/>
<path d="M1193.85 453.846H1201.54V484.615H1193.85V453.846Z" fill="black"/>
<path d="M1201.54 484.615H1209.23V492.308H1201.54V484.615Z" fill="black"/>
<path d="M1209.23 476.923H1216.92V484.615H1209.23V476.923Z" fill="black"/>
<path d="M1216.92 484.615H1224.62V492.308H1216.92V484.615Z" fill="black"/>
<path d="M1224.62 453.846H1232.31V484.615H1224.62V453.846Z" fill="black"/>
<path d="M1147.69 407.692H1155.38V446.154H1147.69V407.692Z" fill="black"/>
<path d="M1155.38 407.692H1178.46V415.385H1155.38V407.692Z" fill="black"/>
<path d="M1155.38 423.077H1178.46V430.769H1155.38V423.077Z" fill="black"/>
<path d="M1178.46 415.385H1186.15V423.077H1178.46V415.385Z" fill="black"/>
<path d="M1155.38 438.462H1178.46V446.154H1155.38V438.462Z" fill="black"/>
<path d="M1178.46 430.769H1186.15V438.462H1178.46V430.769Z" fill="black"/>
<path d="M1147.69 453.846H1178.46V461.538H1147.69V453.846Z" fill="black"/>
<path d="M1178.46 461.538H1186.15V492.308H1178.46V461.538Z" fill="black"/>
<path d="M1170.77 461.538H1178.46V469.231H1170.77V461.538Z" fill="black"/>
<path d="M1147.69 484.615H1155.38V492.308H1147.69V484.615Z" fill="black"/>
<path d="M1155.38 476.923H1163.08V484.615H1155.38V476.923Z" fill="black"/>
<path d="M1163.08 469.231H1170.77V476.923H1163.08V469.231Z" fill="black"/>
<path d="M1178.46 461.538H1186.15V453.846H1178.46V461.538Z" fill="black"/>
<path d="M1327.85 407.692H1335.54V446.154H1327.85V407.692Z" fill="black"/>
<path d="M1358.62 407.692H1366.31V446.154H1358.62V407.692Z" fill="black"/>
<path d="M1343.23 423.077H1350.92V430.769H1343.23V423.077Z" fill="black"/>
<path d="M1335.54 415.385H1343.23V423.077H1335.54V415.385Z" fill="black"/>
<path d="M1350.92 430.769H1358.62V438.462H1350.92V430.769Z" fill="black"/>
<path d="M1327.85 453.846H1335.54V484.615H1327.85V453.846Z" fill="black"/>
<path d="M1335.54 484.615H1343.23V492.308H1335.54V484.615Z" fill="black"/>
<path d="M1343.23 476.923H1350.92V484.615H1343.23V476.923Z" fill="black"/>
<path d="M1350.92 484.615H1358.62V492.308H1350.92V484.615Z" fill="black"/>
<path d="M1358.62 453.846H1366.31V484.615H1358.62V453.846Z" fill="black"/>
<path d="M1281.69 407.692H1289.38V446.154H1281.69V407.692Z" fill="black"/>
<path d="M1289.38 407.692H1312.46V415.385H1289.38V407.692Z" fill="black"/>
<path d="M1289.38 423.077H1312.46V430.769H1289.38V423.077Z" fill="black"/>
<path d="M1312.46 415.385H1320.15V423.077H1312.46V415.385Z" fill="black"/>
<path d="M1289.38 438.462H1312.46V446.154H1289.38V438.462Z" fill="black"/>
<path d="M1312.46 430.769H1320.15V438.462H1312.46V430.769Z" fill="black"/>
<path d="M1281.69 453.846H1312.46V461.538H1281.69V453.846Z" fill="black"/>
<path d="M1312.46 461.538H1320.15V492.308H1312.46V461.538Z" fill="black"/>
<path d="M1304.77 461.538H1312.46V469.231H1304.77V461.538Z" fill="black"/>
<path d="M1281.69 484.615H1289.38V492.308H1281.69V484.615Z" fill="black"/>
<path d="M1289.38 476.923H1297.08V484.615H1289.38V476.923Z" fill="black"/>
<path d="M1297.08 469.231H1304.77V476.923H1297.08V469.231Z" fill="black"/>
<path d="M1312.46 461.538H1320.15V453.846H1312.46V461.538Z" fill="black"/>
<path d="M1415.69 407.692H1423.38V446.154H1415.69V407.692Z" fill="black"/>
<path d="M1423.38 407.692H1446.46V415.385H1423.38V407.692Z" fill="black"/>
<path d="M1423.38 423.077H1446.46V430.769H1423.38V423.077Z" fill="black"/>
<path d="M1423.38 438.462H1446.46V446.154H1423.38V438.462Z" fill="black"/>
<path d="M1415.69 453.846H1446.46V461.538H1415.69V453.846Z" fill="black"/>
<path d="M1438.77 461.538H1446.46V469.231H1438.77V461.538Z" fill="black"/>
<path d="M1415.69 484.615H1423.38V492.308H1415.69V484.615Z" fill="black"/>
<path d="M1423.38 476.923H1431.08V484.615H1423.38V476.923Z" fill="black"/>
<path d="M1431.08 469.231H1438.77V476.923H1431.08V469.231Z" fill="black"/>
</g>
</g>
<defs>
<clipPath id="clip0_219_2">
<rect width="1440" height="500" fill="white"/>
</clipPath>
</defs>
</svg>
